<svg width="48" height="48" viewBox="0 0 48 48" fill="none" xmlns="http://www.w3.org/2000/svg">
<path d="M44 24C44.0034 26.6343 43.4847 29.2432 42.4739 31.6758C41.4631 34.1085 39.9803 36.3168 38.111 38.173C36.2571 40.0237 34.0566 41.4908 31.6354 42.4907C29.2141 43.4905 26.6196 44.0034 24 44C12.954 44 4.00002 35.046 4.00002 24C3.99303 18.8718 5.96289 13.9381 9.50002 10.225C11.3664 8.25558 13.6149 6.68773 16.1081 5.61737C18.6014 4.54701 21.2868 3.99665 24 3.99999C26.6196 3.99659 29.2141 4.50947 31.6354 5.5093C34.0566 6.50913 36.2571 7.97631 38.111 9.82699C39.9803 11.6832 41.4631 13.8915 42.4739 16.3241C43.4847 18.7568 44.0034 21.3657 44 24V24Z" stroke="black" stroke-width="4" stroke-linecap="round" stroke-linejoin="round"/>
<path d="M44 24C41.082 24 33.032 22.9 25.827 26.063C18 29.5 12.333 34.831 9.86304 38.147" stroke="black" stroke-width="4" stroke-linecap="round" stroke-linejoin="round"/>
<path d="M16.5 5.45398C19.63 8.34298 26.46 15.699 29 23C31.54 30.302 32.48 39.28 33.06 41.835" stroke="black" stroke-width="4" stroke-linecap="round" stroke-linejoin="round"/>
<path d="M4.15405 21.5C7.93205 21.728 17.9331 21.933 24.3331 19.2C30.7331 16.467 36.2401 11.44 38.1291 9.845" stroke="black" stroke-width="4" stroke-linecap="round" stroke-linejoin="round"/>
<path d="M5.5 31.613C7.26231 35.8789 10.4407 39.4072 14.5 41.604" stroke="black" stroke-width="4" stroke-linecap="round" stroke-linejoin="round"/>
<path d="M4.00002 24C3.99303 18.8717 5.96289 13.9381 9.50002 10.225" stroke="black" stroke-width="4" stroke-linecap="round" stroke-linejoin="round"/>
<path d="M24 3.99998C21.2867 3.99665 18.6013 4.54701 16.1081 5.61737C13.6149 6.68773 11.3663 8.25558 9.5 10.225" stroke="black" stroke-width="4" stroke-linecap="round" stroke-linejoin="round"/>
<path d="M32 5.664C34.2776 6.66054 36.3499 8.07224 38.111 9.827C39.9802 11.6832 41.4631 13.8915 42.4739 16.3242C43.4847 18.7568 44.0034 21.3657 44 24C44 26.463 43.555 28.821 42.74 31" stroke="black" stroke-width="4" stroke-linecap="round" stroke-linejoin="round"/>
<path d="M24 44C26.6196 44.0034 29.2141 43.4905 31.6353 42.4907C34.0566 41.4908 36.2571 40.0237 38.111 38.173" stroke="black" stroke-width="4" stroke-linecap="round" stroke-linejoin="round"/>
</svg>
