<svg width="502" height="924" viewBox="0 0 502 924" fill="none" xmlns="http://www.w3.org/2000/svg">
<path d="M123.39 862.213C123.39 862.213 112.209 898.257 112.209 931.99C112.209 1001.47 288.418 933.839 288.418 933.839C288.418 933.839 292.443 917.681 301.388 912.582C310.332 907.483 314.804 933.839 314.804 933.839C314.804 933.839 488.79 985.041 464.179 931.99C438.24 876.076 472.577 843.77 438.24 845.115C249.509 852.509 123.39 845.115 123.39 845.115V862.213Z" fill="#0D0E0E" stroke="black" stroke-width="3"/>
<path d="M356.386 292.001C354.471 303.069 361.46 311.226 365.194 313.921L381.372 306.978L375.482 290.655C369.915 286.492 358.302 280.933 356.386 292.001Z" fill="#482D28" stroke="black" stroke-width="3"/>
<path d="M370.946 323.781C371.996 326.301 370.818 335.176 357.711 350.515C344.604 365.854 344.565 414.441 346.184 436.817L465.107 437.57C457.169 424.635 427.479 393.81 423.447 357.5C418.942 316.935 390.498 309.495 382.947 306.125L367.882 314.357L370.946 323.781Z" fill="url(#paint0_linear_46:1195)" stroke="black" stroke-width="3"/>
<path d="M367.131 291.057C362.956 306.092 362.122 350.384 367.131 358.45C372.139 366.516 375.181 376.316 379.206 380.738L367.131 484.215L291.996 461.397L246.826 408.862C246.826 408.862 277.684 350.194 277.684 312.776C277.684 291.057 277.684 288.285 277.684 288.285L367.131 291.057Z" fill="white" stroke="black" stroke-width="3"/>
<path d="M124.732 826.169C127.266 832.792 144.052 846.779 190.922 849.736C249.509 853.433 306.307 841.88 340.297 861.289C367.488 876.815 418.413 867.758 440.476 861.289C434.513 836.027 421.066 775.893 414.984 737.446C407.381 689.387 404.25 692.16 397.095 670.903C393.333 659.73 397.84 608.828 414.984 572.476L379.206 382.553C367.876 441.702 323.804 450.483 248.167 336.805C215.883 288.284 132.931 423.064 133.229 530.887V697.243C127.564 730.514 117.934 802.879 124.732 826.169Z" fill="#D45454"/>
<path d="M139.937 697.243L124.732 826.169M124.732 826.169C127.266 832.792 144.052 846.779 190.922 849.736C249.509 853.433 306.307 841.88 340.297 861.289C367.488 876.815 418.413 867.758 440.476 861.289C434.513 836.027 421.066 775.893 414.984 737.446C407.381 689.387 404.25 692.16 397.095 670.903C393.334 659.73 397.84 608.828 414.984 572.476L379.206 382.553C367.876 441.702 323.804 450.483 248.167 336.805C215.883 288.284 132.931 423.064 133.229 530.887V697.243C127.564 730.514 117.934 802.879 124.732 826.169Z" stroke="black" stroke-width="3"/>
<path d="M409.617 576.635C399.331 599.432 379.832 651.68 384.125 678.297C404.519 690.497 417.369 764.094 419.009 796.133L452.551 927.369L481.621 939.846L465.968 749.923L452.551 614.527L409.617 576.635Z" fill="url(#paint1_linear_46:1195)" stroke="black" stroke-width="3"/>
<path fill-rule="evenodd" clip-rule="evenodd" d="M368.822 353.813C367.928 353.048 367.061 352.308 366.236 351.592C369.09 364.735 372.541 384.902 376.644 408.873C390.311 488.736 411.206 610.825 441.315 656.085C441.128 663.179 449.883 687.31 462.927 705.032C454.937 690.355 456.636 668.812 459.064 655.177C471.458 627.131 479.409 575.189 477.149 546.136C480.131 527.036 471.335 477.006 464.179 459.262C448.098 429.076 425.752 413.163 410.041 401.975C399.536 394.494 391.998 389.126 391.281 383.015C389.978 371.905 377.942 361.613 368.822 353.813Z" fill="#A63636"/>
<path d="M366.236 351.592L367.218 350.459L363.814 347.509L364.77 351.911L366.236 351.592ZM368.822 353.813L367.847 354.953L368.822 353.813ZM376.644 408.873L378.122 408.62L376.644 408.873ZM441.315 656.085L442.815 656.125L442.827 655.65L442.564 655.254L441.315 656.085ZM462.927 705.032L461.719 705.921L464.245 704.315L462.927 705.032ZM459.064 655.177L457.692 654.571L457.619 654.736L457.588 654.914L459.064 655.177ZM477.149 546.136L475.667 545.905L475.64 546.078L475.654 546.253L477.149 546.136ZM464.179 459.262L465.571 458.701L465.541 458.627L465.503 458.556L464.179 459.262ZM410.041 401.975L410.911 400.753L410.041 401.975ZM391.281 383.015L389.791 383.19L391.281 383.015ZM365.254 352.726C366.083 353.445 366.953 354.189 367.847 354.953L369.797 352.673C368.902 351.908 368.039 351.17 367.218 350.459L365.254 352.726ZM378.122 408.62C374.023 384.665 370.565 364.458 367.702 351.274L364.77 351.911C367.615 365.013 371.06 385.139 375.165 409.126L378.122 408.62ZM442.564 655.254C427.681 632.883 414.977 591.306 404.275 545.117C393.591 499.003 384.957 448.559 378.122 408.62L375.165 409.126C381.998 449.05 390.645 499.581 401.353 545.794C412.042 591.93 424.84 634.028 440.066 656.916L442.564 655.254ZM464.135 704.143C457.701 695.402 452.307 685.051 448.545 675.998C446.665 671.474 445.202 667.296 444.222 663.826C443.231 660.312 442.774 657.658 442.815 656.125L439.816 656.046C439.763 658.059 440.331 661.082 441.335 664.641C442.353 668.246 443.858 672.538 445.774 677.149C449.604 686.365 455.109 696.94 461.719 705.921L464.135 704.143ZM457.588 654.914C456.362 661.797 455.315 670.7 455.589 679.759C455.864 688.8 457.457 698.12 461.61 705.749L464.245 704.315C460.408 697.267 458.855 688.477 458.588 679.668C458.322 670.878 459.338 662.192 460.541 655.44L457.588 654.914ZM475.654 546.253C476.771 560.616 475.365 580.735 472.121 600.795C468.876 620.857 463.816 640.713 457.692 654.571L460.436 655.783C466.706 641.595 471.818 621.458 475.082 601.274C478.347 581.087 479.787 560.71 478.645 546.02L475.654 546.253ZM462.788 459.823C466.301 468.533 470.268 485.341 472.984 502.426C475.706 519.544 477.117 536.614 475.667 545.905L478.631 546.368C480.162 536.559 478.667 519.063 475.947 501.955C473.222 484.815 469.214 467.735 465.571 458.701L462.788 459.823ZM409.171 403.197C424.864 414.372 446.952 430.114 462.856 459.967L465.503 458.556C449.245 428.038 426.64 411.954 410.911 400.753L409.171 403.197ZM389.791 383.19C390.214 386.799 392.621 389.982 395.972 393.082C399.345 396.203 403.947 399.476 409.171 403.197L410.911 400.753C405.631 396.993 401.211 393.841 398.009 390.88C394.786 387.898 393.064 385.342 392.771 382.84L389.791 383.19ZM367.847 354.953C372.422 358.865 377.625 363.319 381.853 368.159C386.098 373.02 389.192 378.087 389.791 383.19L392.771 382.84C392.066 376.833 388.491 371.199 384.112 366.186C379.717 361.153 374.342 356.56 369.797 352.673L367.847 354.953Z" fill="black"/>
<path d="M462.838 704.175C462.689 752.079 464.179 852.139 471.335 869.144C478.491 886.15 477 921.208 475.36 936.611H493.697C492.355 935.379 490.477 927.923 493.697 907.961C481.89 893.543 473.869 797.827 471.335 751.771L462.838 704.175Z" fill="#A63636" stroke="black" stroke-width="3"/>
<path d="M92.9783 748.536L130.546 819.7L126.521 840.956C116.383 813.23 79.1141 762.399 80.9031 760.089C88.1112 750.78 87.6115 756.392 92.9783 748.536Z" fill="#862E2E" stroke="black" stroke-width="3"/>
<path d="M135.018 760.551L128.757 832.177C118.47 794.285 110.42 780.422 88.5059 754.544C70.4704 733.247 98.9413 725.278 118.47 720.349L132.782 706.947C135.493 713.49 132.214 751.584 135.018 760.551Z" fill="url(#paint2_linear_46:1195)" stroke="black" stroke-width="3"/>
<path d="M107.737 873.303C109.939 910.272 144.052 858.794 190.922 861.751C249.509 865.448 306.307 853.895 340.296 873.303C367.488 888.83 434.215 905.189 447.632 873.303C447.632 846.964 421.066 787.907 414.984 749.461C407.381 701.402 410.394 709.258 399.331 687.539C398.436 683.688 394.68 675.987 386.808 675.987C390.386 665.821 389.939 664.896 386.808 658.427C384.304 653.251 399.778 600.819 409.617 573.863L379.205 394.568C367.876 453.717 323.804 462.498 248.167 348.82C215.883 300.299 132.931 435.078 133.229 542.902V709.258C127.564 742.529 102.37 783.194 107.737 873.303Z" fill="white" stroke="black" stroke-width="3"/>
<path d="M135.112 695.857C136.156 719.886 142.357 771.087 158.815 783.656C175.273 796.225 154.939 798.443 142.715 797.981C136.752 783.964 124.557 754.636 123.484 749.461C122.411 744.285 130.789 711.568 135.112 695.857Z" fill="black" stroke="black"/>
<path d="M365.341 340.964C376.958 351.009 394.411 370.05 394.411 387.316C394.411 409.305 384.815 450.831 378.754 453.612C372.693 456.394 353.251 393.672 357.291 384.864C361.332 376.055 365.341 377.47 365.341 340.964Z" fill="#862E2E" stroke="black" stroke-width="3"/>
<path d="M306.754 844.497C267.453 830.185 197.263 724.037 167.081 672.752H143.963C170.934 737.838 233.161 849.404 306.754 844.497Z" fill="black" stroke="black"/>
<path d="M364.447 305.844C343.875 338.191 300.046 372.849 279.473 299.375L364.447 305.844Z" fill="black"/>
<path d="M364.447 305.844C343.875 338.191 300.046 372.849 279.473 299.375M364.447 305.844C349.241 305.844 305.592 299.375 279.473 299.375M364.447 305.844L279.473 299.375" stroke="black"/>
<path d="M363.858 430.856C394.134 477.988 322.436 452.28 290.654 430.856C293.817 423.874 298.913 412.238 301.951 414.194C310.085 419.431 330.871 447.043 363.858 430.856Z" fill="#010101" stroke="black"/>
<path d="M230.725 672.686C214.054 665.767 184.28 614.451 171.477 589.658L167.186 581.256H157.379C168.821 612.721 199.507 675.059 230.725 672.686Z" fill="black" stroke="black"/>
<path d="M281.275 429.376C258.466 488.679 210.792 611.167 202.563 617.451C194.96 633.162 52.7401 860.515 29.9313 848.963C15.9777 820.498 15.1727 778.262 16.5144 760.702C16.5144 628.079 99.6994 552.744 99.6992 405.809C99.6992 373.924 2.19055 169.214 43.7961 74.9454C92.9783 59.545 131.006 20.8803 175.282 4.70657C191.972 -1.39017 218.216 20.4176 218.216 20.4176C206.439 23.4982 171.078 26.6097 186.462 49.5299C205.693 78.1801 234.763 84.1874 241.919 79.1043C249.075 74.0212 177.071 129.473 171.257 129.473H154.709V140.102L142.187 150.73C145.466 152.424 151.936 158.493 151.579 169.214C151.221 179.935 151.429 186.312 151.579 188.16C153.517 190.008 157.482 194.537 157.84 197.864C158.197 201.191 159.48 215.578 160.076 222.355L171.704 230.673C173.493 235.448 176.713 245.922 175.282 249.619C173.851 253.316 180.052 256.089 183.332 257.013C183.481 255.473 184.673 252.299 188.251 251.93C192.724 251.468 215.98 245.46 218.216 249.619C220.452 253.778 236.999 275.497 235.211 289.822C233.779 301.282 234.614 311.541 235.211 315.238L281.275 405.809V429.376Z" fill="#A63636"/>
<path d="M171.257 129.473C177.071 129.473 249.075 74.0212 241.919 79.1043C234.763 84.1874 205.693 78.1801 186.462 49.5299C171.078 26.6097 206.439 23.4982 218.216 20.4176C218.216 20.4176 191.972 -1.39017 175.282 4.70657C131.006 20.8803 92.9783 59.545 43.7961 74.9454C2.19055 169.214 99.6992 373.924 99.6992 405.809C99.6994 552.744 16.5144 628.079 16.5144 760.702C15.1727 778.262 15.9777 820.498 29.9313 848.963C52.7401 860.515 194.96 633.162 202.563 617.451C210.792 611.166 258.466 488.679 281.275 429.376V405.809L235.211 315.238C234.614 311.541 233.779 301.282 235.211 289.822C236.999 275.497 220.452 253.778 218.216 249.619C215.98 245.46 192.724 251.468 188.251 251.93C184.673 252.299 183.481 255.473 183.332 257.013C180.052 256.089 173.851 253.316 175.282 249.619C176.713 245.922 173.493 235.448 171.704 230.673L160.076 222.355C159.48 215.578 158.197 201.191 157.84 197.864C157.482 194.537 153.517 190.008 151.579 188.16C151.429 186.312 151.221 179.935 151.579 169.214C151.936 158.493 145.466 152.424 142.187 150.73L154.709 140.102V129.473M171.257 129.473C166.605 129.473 158.287 129.473 154.709 129.473M171.257 129.473H154.709" stroke="black" stroke-width="3"/>
<path d="M91.1894 236.136C125.179 243.51 133.61 221.329 140.385 208.39C152.192 185.839 155.143 207.62 155.143 221.329C145.155 232.111 146.199 245.309 91.1894 236.136Z" fill="black"/>
<path d="M91.1894 236.136C125.179 243.51 133.61 221.329 140.385 208.39C152.192 185.839 155.143 207.62 155.143 221.329C145.155 232.111 146.199 245.309 91.1894 236.136ZM91.1894 236.136C91.1894 228.003 91.1894 239.217 91.1894 236.136Z" stroke="black"/>
<path d="M97.0034 169.062C16.8986 194.211 39.2572 121.95 43.7829 73.4077C28.5771 142.723 32.7228 168.234 39.3107 180.153C43.8364 188.341 54.0092 201.229 97.0034 169.062Z" fill="black" stroke="black"/>
<path d="M76.7136 557.227C75.3719 562.31 46.339 629.404 40.6524 656.579C29.9189 707.872 30.3662 731.439 38.8635 793.822L76.7136 557.227Z" fill="black" stroke="black"/>
<path d="M457.024 544.75C450.166 564.467 437.793 606.21 443.16 615.452C454.251 606.21 457.024 564.467 457.024 544.75Z" fill="black" stroke="black"/>
<path d="M201.315 13.8573C205.926 8.51079 218.45 -0.578265 231.658 5.83754C244.866 12.2533 248.466 15.9366 248.614 16.9762L209.793 28.5603C204.736 38.8078 217.379 76.6789 237.459 82.4709C255.754 74.4512 243.409 84.2531 239.69 92.2728L217.379 102.52C191.052 81.2827 164.725 33.4613 201.315 13.8573Z" fill="#862E2E" stroke="black" stroke-width="3"/>
<path d="M278.579 313.238C280.815 324.328 284.84 337.267 300.493 359.448C325.538 371.462 305.151 414.89 284.84 437.08C271.728 451.406 237.702 352.793 236.986 313.238C253.444 320.631 264.715 313.546 268.293 309.079C271.721 307.538 278.579 306.214 278.579 313.238Z" fill="#862E2E" stroke="black" stroke-width="3"/>
<path d="M25.5873 728.183C30.0726 758.703 34.1891 820.887 46.6762 831.187C59.1633 841.487 21.0617 859.322 6.17044 863.137C-2.08253 830.551 3.17823 715.289 6.17043 706.247C9.80015 695.279 20.7028 661.898 34.2967 654.268L25.5873 728.183Z" fill="#862E2E" stroke="black" stroke-width="3"/>
<path d="M473.124 934.763C469.904 932.914 471.782 916.125 473.124 907.961C475.211 907.191 490.119 913.044 495.933 906.113C501.747 916.278 499.361 929.217 498.169 934.763C491.162 935.533 476.344 936.611 473.124 934.763Z" fill="#862E2E" stroke="black" stroke-width="3"/>
<path d="M201.673 823.122C210.17 841.144 219.264 857.163 230.743 862.862H201.673C203.462 842.068 193.768 806.356 201.673 823.122Z" fill="black" stroke="black"/>
<path d="M317.802 323.755C278.893 318.404 251.173 255.295 249.759 225.678C249.759 225.678 245.349 191.033 249.441 170.311C251.969 157.507 264.495 146.073 264.495 146.073C264.495 146.073 287.682 114.811 308.207 112.272C326.665 109.988 345.657 114.75 363.552 120.086C387.095 127.106 405.408 165.609 405.408 165.609C405.408 165.609 410.208 208.487 406.623 221.661C403.039 234.834 392.687 271.059 378.71 289.084C355.834 318.585 339.657 326.76 317.802 323.755Z" fill="white" stroke="black" stroke-width="3"/>
<path d="M318.83 219.096C317.488 218.634 314.805 219.188 314.805 225.103" stroke="black" stroke-width="2"/>
<path d="M366.862 304.237C377.248 301.891 392.13 282.88 392.623 279.967C393.116 277.054 389.184 279.654 388.478 275.774L366.862 304.237Z" fill="black" stroke="black"/>
<path d="M278.46 299.066C263.503 291.165 256.523 271.841 257.178 269.006C257.832 266.171 255.831 264.928 258.814 261.918L278.46 299.066Z" fill="black" stroke="black"/>
<path d="M189.133 551.682C189.133 551.682 242.8 402.886 228.042 324.005L221.625 283.664C221.625 392.719 189.133 551.682 189.133 551.682Z" fill="black" stroke="black"/>
<path d="M414.955 226.515C412.592 224.869 407.041 230.558 404.561 233.609C400.036 243.098 390.235 265.126 387.235 277.322C388.54 287.489 392.004 286.958 396.35 285.269C400.94 283.484 418.353 243.637 419.833 237.62C421.314 231.602 417.908 228.572 414.955 226.515Z" fill="white" stroke="black" stroke-width="3"/>
<path d="M206.694 257.786L196.41 261.034C190.436 278.355 193.765 358.331 190.474 406.582C199.877 366.218 198.173 309.649 206.694 282.739C213.51 261.212 210.22 264.127 206.694 257.786Z" fill="black" stroke="black"/>
<path d="M315.747 184.832C317.221 195.871 307.351 206.904 292.941 208.957C278.532 211.011 266.14 203.151 264.667 192.111C263.193 181.071 273.063 170.039 287.472 167.985C301.882 165.932 314.273 173.792 315.747 184.832Z" stroke="black" stroke-width="3"/>
<path d="M157.995 236.355L161.911 235.351L164.255 245.111C164.692 264.241 164.338 301.46 157.846 301.519C147.568 301.613 160.338 246.115 157.995 236.355Z" fill="black" stroke="black"/>
<path d="M315.252 186.16C322.258 182.771 337.077 178.581 340.297 188.933" stroke="black" stroke-width="3"/>
<path d="M391.257 199.525C388.654 210.335 375.524 216.788 361.404 213.158C347.284 209.528 338.612 197.469 341.215 186.659C343.818 175.849 356.948 169.396 371.068 173.026C385.188 176.656 393.86 188.715 391.257 199.525Z" stroke="black" stroke-width="3"/>
<path d="M241.459 211.114C238.477 209.419 232.514 173.684 252.64 132.095C268.165 100.013 295.574 96.8453 305.413 94.202C327.774 88.1944 388.151 101.596 399.779 122.391C414.537 148.783 423.221 160.984 414.537 214.811C411.854 231.446 402.014 242.537 397.989 247.62C406.04 179.229 402.084 139.12 363.106 122.391C334.036 109.914 326.082 113.071 294.679 122.391C252.64 134.867 252.342 207.571 252.64 232.37L241.459 211.114Z" fill="#0C0B0B" stroke="black"/>
<path d="M264.882 165.102C264.882 152.258 273.659 135.069 283.498 127.474C280.815 133.019 270.081 148.711 270.081 158.434C270.081 172.238 253.143 201.392 243.248 215.273C250.459 203.901 264.882 177.946 264.882 165.102Z" fill="black" stroke="black"/>
<path d="M388.877 152.163C388.877 139.319 380.1 122.13 370.261 114.535C372.944 120.08 383.678 135.772 383.678 145.495C383.678 159.299 400.617 188.453 410.512 202.334C403.3 190.962 388.877 165.007 388.877 152.163Z" fill="black" stroke="black"/>
<path d="M240.78 210.56C243.413 209.434 247.755 216.152 249.597 219.652C252.202 229.882 257.557 253.486 258.145 266.056C254.907 275.75 251.614 274.516 247.681 271.966C243.527 269.273 234.148 226.639 233.858 220.438C233.568 214.236 237.49 211.967 240.78 210.56Z" fill="white" stroke="black" stroke-width="3"/>
<path d="M300.94 121.004C296.766 121.158 288.865 123.592 290.654 132.095C292.443 140.597 287.822 145.496 285.287 146.882" stroke="black"/>
<path d="M371.156 121.004C371.305 124.855 372.855 133.574 377.864 137.64C382.873 141.706 383.529 146.728 383.231 148.73" stroke="black"/>
<path d="M384.68 194.944C384.227 194.442 366.531 167.646 347.327 190.632C366.023 198.324 378.533 197.154 384.68 194.944Z" fill="black" stroke="black"/>
<path d="M384.593 191.205C384.14 190.702 367.062 166.233 347.577 187.744" stroke="black"/>
<path d="M379.87 193.658C379.484 193.255 370.131 173.453 348.198 190.047C367.254 197.304 371.667 193.686 379.87 193.658Z" fill="white" stroke="white"/>
<path d="M356.193 187.485C356.068 188.935 356.83 190.197 358.304 191.184C359.785 192.175 361.933 192.846 364.396 193.069C366.859 193.293 369.089 193.019 370.716 192.31C372.335 191.604 373.302 190.499 373.427 189.049C373.554 187.577 372.785 186.105 371.315 184.916C369.848 183.731 367.726 182.871 365.294 182.65C362.862 182.429 360.626 182.894 358.979 183.797C357.329 184.702 356.32 186.014 356.193 187.485Z" fill="black" stroke="black"/>
<ellipse rx="1.80554" ry="1.07203" transform="matrix(-0.995905 -0.0903743 -0.0858942 0.9963 364.958 184.24)" fill="white"/>
<path d="M381.759 184.783C381.63 185.127 377.759 186.938 375.537 186.171C374.694 185.88 377.061 188.628 377.061 188.628C378.896 187.126 379.924 186.285 381.759 184.783Z" fill="black"/>
<path d="M379.964 182.505C379.834 182.848 375.963 184.659 373.741 183.892C372.898 183.602 375.266 186.349 375.266 186.349C377.1 184.848 378.129 184.006 379.964 182.505Z" fill="black"/>
<path d="M384.88 187.334C384.88 187.334 380.684 190.198 378.604 188.68C377.738 188.049 380.192 191.24 380.192 191.24L384.88 187.334Z" fill="black"/>
<path d="M388.668 193.355C388.668 193.355 384.33 194.002 381.332 193.051C380.541 192.801 381.653 195.121 381.653 195.121L388.668 193.355Z" fill="black"/>
<path d="M387.924 190.609C387.924 190.609 383.759 191.829 380.647 191.286C379.826 191.142 381.309 193.297 381.309 193.297L387.924 190.609Z" fill="black"/>
<path d="M271.583 187.571C272.09 187.161 292.626 164.671 309.76 187.313C290.105 192.443 277.577 190.167 271.583 187.571Z" fill="black" stroke="black"/>
<path d="M272.043 184.2C272.551 183.79 292.225 163.34 309.796 184.673" stroke="black"/>
<path d="M276.571 186.878C277.001 186.551 288.413 169.569 308.939 186.701C288.961 191.403 284.859 187.703 276.571 186.878Z" fill="white" stroke="white"/>
<path d="M302.337 183.772C302.296 186.935 298.251 188.674 293.29 188.599C288.329 188.524 284.33 186.663 284.371 183.5C284.412 180.338 288.467 177.835 293.428 177.91C298.389 177.985 302.378 180.61 302.337 183.772Z" fill="black"/>
<ellipse rx="1.83368" ry="0.974218" transform="matrix(0.999886 0.0151242 -0.0129288 0.999917 293.661 179.02)" fill="white"/>
<path d="M275.54 178.673C275.636 178.996 279.37 181.01 281.691 180.534C282.572 180.353 279.908 182.605 279.908 182.605C278.202 181.07 277.246 180.209 275.54 178.673Z" fill="black"/>
<path d="M277.58 176.789C277.676 177.112 281.41 179.126 283.731 178.65C284.612 178.469 281.948 180.721 281.948 180.721C280.242 179.186 279.286 178.325 277.58 176.789Z" fill="black"/>
<path d="M272.133 180.674C272.133 180.674 276.091 183.672 278.343 182.503C279.28 182.017 276.485 184.662 276.485 184.662L272.133 180.674Z" fill="black"/>
<path d="M267.71 185.748C267.71 185.748 272.029 186.755 275.154 186.188C275.978 186.039 274.625 188.027 274.625 188.027L267.71 185.748Z" fill="black"/>
<path d="M268.733 183.338C268.733 183.338 272.821 184.846 276.021 184.658C276.865 184.609 275.153 186.411 275.153 186.411L268.733 183.338Z" fill="black"/>
<path d="M320.793 165.298C306.298 162.682 275.327 158.864 267.398 164.518C271.387 155.167 280.287 153.019 284.239 153.115C294.542 152.72 316.278 154.603 320.793 165.298Z" fill="black" stroke="black"/>
<path d="M340.893 167.495C354.252 166.669 382.58 166.956 389.022 174.712C386.577 163.272 378.833 159.43 375.267 158.94C366.046 156.915 346.262 155.792 340.893 167.495Z" fill="black" stroke="black"/>
<path d="M209.211 26.2841C226.36 21.1988 262.197 11.0282 268.355 11.0282C276.051 11.0282 286.584 -0.991593 302.382 2.7068C318.181 6.4052 350.589 19.8121 359.501 20.2744C368.413 20.7367 398.39 7.79229 398.39 7.79229C398.39 7.79229 408.424 8.14699 407.302 11.0282C402.44 23.5105 389.721 37.8418 387.452 37.8418C385.183 37.8418 367.872 42.1566 359.501 44.314L382.186 54.9469H398.39L409.327 48.937C412.973 46.9337 419.86 46.1632 424.316 48.937C430.148 52.5678 430.714 54.958 424.316 59.5699C416.619 65.1175 393.528 81.2979 385.427 81.2979C383.974 81.2979 382.45 81.0058 380.904 80.5146C382.661 81.6769 384.218 82.7489 385.427 83.6094C398.255 82.6848 424.051 83.6094 427.556 83.6094C432.012 83.6094 436.873 88.2324 427.556 95.1669C420.728 100.249 388.91 103.858 378.54 101.639C378.54 105.338 399.065 103.18 409.327 101.639C412.028 103.642 417.267 108.666 416.619 112.734C415.809 117.82 402.44 120.593 402.44 120.593C402.44 120.593 375.434 121.518 363.957 120.593C352.344 116.433 326.121 106.817 314.13 101.639C301.572 91.4685 275.646 67.429 275.646 67.429L233.516 81.2979C223.929 77.5994 205.646 61.4187 209.211 26.2841Z" fill="white" stroke="black" stroke-width="3"/>
<path d="M312.915 47.0874C320.477 51.5563 340.866 65.2096 340.866 87.7698C353.829 85.4583 362.741 91.9305 362.741 91.9305C362.741 91.9305 364.362 87.7698 377.325 82.6845C390.288 77.5992 387.857 87.7698 385.832 93.7797C381.646 96.2453 373.679 105.337 373.679 105.337C373.679 105.337 358.015 108.111 353.829 110.885C349.643 110.885 340.866 110.145 339.246 107.186" stroke="black" stroke-width="2"/>
<path d="M261.873 33.2192C263.088 31.2159 268.76 30.4453 274.836 30.4453" stroke="black" stroke-width="2"/>
<path d="M229.466 32.757L271.19 25.8225L274.836 19.3503" stroke="black" stroke-width="2"/>
<path d="M382.783 665.358C373.481 669.055 375.33 658.889 377.417 653.344C340.565 675.894 308.99 712.03 297.81 727.28C330.01 705.099 392.086 661.662 382.783 665.358Z" fill="black" stroke="black"/>
<path d="M349.241 867.758C355.324 874.043 389.343 875.306 405.592 875.152L339.849 832.639C340.446 841.727 343.159 861.474 349.241 867.758Z" fill="black" stroke="black"/>
<path d="M331.059 190.319L335.377 222.798L327.605 228.212L322.855 225.892" stroke="black" stroke-width="2"/>
<path d="M294.679 258.248C300.493 258.248 315.252 249.468 321.066 251.779C326.88 254.089 326.79 254.736 333.588 251.779C340.386 248.821 349.241 258.248 364.894 263.331" stroke="black" stroke-width="2"/>
<path d="M314.805 265.18C320.028 267.969 332.53 271.875 340.744 265.18" stroke="black" stroke-width="2"/>
<path opacity="0.1" d="M388.15 270.263C373.888 293.368 314.357 341.056 271.423 284.126C284.84 313.7 338.06 364.993 388.15 270.263Z" fill="black" stroke="black"/>
<path d="M400.759 212.5C401.504 219.124 401.027 235.236 393.156 246.696C385.285 258.156 384.211 266.874 384.659 269.801" stroke="black"/>
<path d="M266.951 440.778C247.72 509.168 177.594 681.162 50.9387 822.01" stroke="black" stroke-width="2"/>
<path d="M394.859 439.391C400.076 488.528 415.91 598.655 445.606 650.78" stroke="black" stroke-width="2"/>
<path d="M110.544 416.659C118.148 403.052 115.266 393.949 103.918 385.87C129.572 375.703 133.656 353.108 142.174 342.812C144.566 353.213 153.802 381.167 110.544 416.659Z" fill="black" stroke="black"/>
<path d="M142.174 888.553L124.284 897.795V924.134L142.174 888.553Z" fill="black" stroke="black"/>
<path opacity="0.5" d="M353.266 876.076C256.306 869.862 203.906 872.798 112.656 885.318L170.956 862.213H296.449L353.266 872.842V876.076Z" fill="black" stroke="black"/>
<path d="M307.223 911.951C295.495 902.62 289.76 935.225 289.76 935.225H326.432C326.432 935.225 323.179 924.646 307.223 911.951Z" fill="black" stroke="black"/>
<path d="M78.0357 102.521C100.046 111.073 167.537 124.61 188.238 121.005C178.244 126.829 172.027 135.111 170.391 135.111H153.883V145.166L138.267 152.447C112.093 152.909 68.4814 149.983 84.2819 138.925C104.606 124.701 74.9126 103.676 78.0357 102.521Z" fill="black" stroke="black"/>
<g style="mix-blend-mode:color-burn">
<path fill-rule="evenodd" clip-rule="evenodd" d="M208.799 32.3813C208.637 33.8862 208.639 35.605 208.795 37.4792C208.743 35.8319 208.743 34.1329 208.799 32.3813ZM235.238 80.7311C238.174 80.6956 240.486 80.1224 241.919 79.1044C243.312 78.1152 241.706 79.4187 238.174 82.1601C250.288 76.9302 247.946 80.1295 244.207 85.2386C242.621 87.4056 240.783 89.9162 239.69 92.2729L217.379 102.52C216.423 101.749 215.468 100.943 214.515 100.105C204.411 107.635 193.426 115.651 185.006 121.403C186.181 121.306 187.262 121.175 188.238 121.004C182.187 124.532 177.52 128.96 174.416 131.904C172.394 133.823 171.036 135.111 170.391 135.111H154.709V140.102L153.883 140.803V145.166L142.475 150.485L142.187 150.73C145.466 152.424 151.936 158.493 151.579 169.214C151.221 179.935 151.429 186.312 151.579 188.16C153.517 190.008 157.482 194.537 157.84 197.864C158.198 201.191 159.48 215.578 160.076 222.355L171.704 230.673C173.493 235.448 176.713 245.923 175.282 249.619C173.851 253.316 180.052 256.089 183.332 257.013C183.481 255.473 184.674 252.3 188.251 251.93C189.293 251.822 191.354 251.414 193.93 250.903L193.931 250.903C202.417 249.221 216.501 246.429 218.216 249.619C218.602 250.337 219.413 251.577 220.483 253.211L220.484 253.212L220.485 253.214L220.486 253.215L220.486 253.216C225.619 261.058 236.691 277.97 235.211 289.822C233.779 301.282 234.614 311.541 235.211 315.238L237.319 319.383C237.134 317.209 237.021 315.154 236.986 313.238C253.445 320.631 264.715 313.546 268.293 309.079C270.963 307.879 275.714 306.81 277.684 309.715V298.642C263.262 290.496 256.534 271.791 257.178 269.006C257.228 268.787 257.263 268.578 257.285 268.376C254.32 275.521 251.266 274.291 247.681 271.966C243.527 269.273 234.148 226.639 233.858 220.438C233.568 214.236 237.49 211.967 240.78 210.56C240.83 210.539 240.879 210.52 240.93 210.505C237.886 205.358 233.653 171.331 252.64 132.095C266.598 103.251 290.163 97.7792 301.927 95.0475C303.222 94.7469 304.374 94.4795 305.354 94.2178C292.28 82.8523 275.646 67.429 275.646 67.429L235.238 80.7311ZM398.72 120.705C399.108 121.261 399.461 121.823 399.779 122.391C400.433 123.561 401.076 124.703 401.705 125.823L401.719 125.847C415.278 149.956 422.833 163.389 414.537 214.811C413.784 219.482 412.466 223.716 410.871 227.503C412.48 226.399 413.986 225.84 414.955 226.515C417.908 228.572 421.314 231.602 419.833 237.62C418.353 243.637 400.94 283.485 396.35 285.269C393.699 286.299 391.376 286.899 389.671 284.902C386.937 288.609 382.61 293.591 377.988 297.601L381.372 306.978L365.194 313.92C364.877 313.692 364.537 313.424 364.181 313.118C363.572 322.866 363.497 333.598 364.072 342.304C371.192 331.966 371.792 325.811 370.947 323.781L367.883 314.357L382.947 306.125C383.625 306.428 384.473 306.763 385.456 307.153L385.457 307.153C395.418 311.1 419.347 320.581 423.447 357.5C426.602 385.911 445.466 410.964 457.327 426.716C460.624 431.096 463.38 434.756 465.107 437.57L449.82 437.473C454.9 443.796 459.775 450.993 464.179 459.262C471.335 477.006 480.131 527.036 477.149 546.136C479.409 575.189 471.458 627.131 459.064 655.177C458.507 658.306 457.988 661.852 457.616 665.635L461.148 701.281C461.654 702.512 462.215 703.708 462.836 704.862L462.838 704.175L471.335 751.771C473.869 797.827 481.89 893.543 493.697 907.961L493.695 907.972C494.533 907.492 495.288 906.881 495.933 906.112C501.747 916.278 499.361 929.217 498.169 934.763C496.706 934.923 494.903 935.098 492.935 935.256C493.184 935.945 493.449 936.384 493.697 936.611H481.355L481.621 939.846L464.389 932.45C485.43 979.487 347.595 943.03 319.672 935.225H289.76C289.76 935.225 291.112 927.539 293.845 920.699C290.143 926.913 288.418 933.839 288.418 933.839C288.418 933.839 112.209 1001.47 112.209 931.99C112.209 916.03 114.712 899.554 117.349 886.621C111.743 887.351 108.38 884.097 107.737 873.303C106.213 847.717 107.153 826.117 109.41 807.541C104.257 798.885 98.8213 790.301 94.0902 782.86C76.8149 806.47 60.6724 826.705 48.5367 838.466C44.1966 848.354 17.9373 860.123 6.17044 863.137C-2.08253 830.551 3.17823 715.289 6.17043 706.247L6.30879 705.829C10.0582 694.494 20.7982 662.025 34.1602 654.346C40.7687 633.422 48.6004 613.186 56.5093 592.751C77.8242 537.679 99.6994 481.158 99.6993 405.809C99.6993 396.975 92.2149 374.876 82.2779 345.536C66.2769 298.289 43.9166 232.266 36.2063 172.617C34.1074 165.607 32.8677 155.583 33.5722 140.606C32.8796 116.644 35.5186 94.6602 43.0947 76.5764C43.3196 75.5305 43.549 74.4743 43.783 73.4078C43.7207 74.0756 43.6551 74.7479 43.5864 75.4244C43.6559 75.2644 43.7258 75.1048 43.7961 74.9455C70.0852 66.7136 93.1873 51.8347 115.76 37.2967C135.417 24.6367 154.672 12.2351 175.282 4.70666C184.03 1.51086 195.404 5.98229 204.247 10.961C210.12 5.91163 220.652 0.491255 231.658 5.83763C241.228 10.486 245.753 13.6999 247.577 15.5133C257.451 12.9366 265.687 11.0282 268.355 11.0282C271.17 11.0282 274.364 9.42032 278.057 7.56166C284.46 4.33846 292.362 0.361077 302.382 2.7068C309.516 4.37679 320.036 8.02624 330.251 11.5696L330.251 11.5697C342.657 15.8735 354.613 20.0208 359.501 20.2744C368.413 20.7367 398.39 7.79229 398.39 7.79229C398.39 7.79229 408.424 8.14699 407.302 11.0282C402.441 23.5105 389.721 37.8418 387.452 37.8418C385.184 37.8418 367.873 42.1566 359.501 44.314L382.186 54.9469H398.39L409.327 48.937C412.973 46.9337 419.86 46.1632 424.316 48.937C430.148 52.5678 430.714 54.958 424.316 59.5699C416.917 64.9028 395.292 80.0616 386.433 81.2268C386.618 81.3599 386.792 81.5068 386.953 81.6672C387.466 82.1784 387.819 82.7925 388.051 83.4533C398.523 82.9437 414.695 83.324 422.862 83.516L422.863 83.516L422.864 83.5161C425.168 83.5703 426.835 83.6094 427.556 83.6094C432.012 83.6094 436.873 88.2324 427.556 95.1669C420.728 100.249 388.91 103.858 378.54 101.639C378.54 105.338 399.065 103.18 409.327 101.639C412.028 103.642 417.267 108.666 416.619 112.734C415.809 117.82 402.441 120.593 402.441 120.593C402.441 120.593 401.031 120.642 398.72 120.705ZM380.904 80.5146L380.967 80.5343L380.942 80.5392L380.904 80.5146ZM385.427 83.6094C384.879 83.2194 384.259 82.7859 383.582 82.3203C383.806 82.3366 384.011 82.3657 384.2 82.4057C384.814 82.5362 385.237 82.781 385.541 83.0841C385.683 83.2248 385.808 83.3881 385.917 83.5754C385.752 83.5864 385.588 83.5978 385.427 83.6094ZM257.927 262.953C257.802 261.569 257.636 260.099 257.438 258.563C257.741 259.415 258.138 260.307 258.678 261.348C258.856 261.793 259.036 262.237 259.218 262.683L258.814 261.918C258.448 262.288 258.157 262.63 257.927 262.953ZM388.591 272.536C386.66 276.516 384.614 280.293 382.465 283.693L387.245 277.398L387.235 277.323C387.596 275.856 388.055 274.248 388.591 272.536ZM277.684 297.6V295.765C276.374 294.018 275.103 292.224 273.872 290.391L277.684 297.6ZM184.598 33.2978C182.687 35.9569 182.024 39.233 183.323 43.3158C183.275 39.8601 183.676 36.4993 184.598 33.2978ZM461.293 702.748C461.8 703.477 462.315 704.197 462.836 704.907C462.824 709.044 462.825 713.556 462.841 718.359L461.293 702.748Z" fill="black"/>
</g>
<defs>
<linearGradient id="paint0_linear_46:1195" x1="424.823" y1="399.189" x2="429.597" y2="291.995" gradientUnits="userSpaceOnUse">
<stop/>
<stop offset="1" stop-color="#6A5454"/>
</linearGradient>
<linearGradient id="paint1_linear_46:1195" x1="432.569" y1="576.635" x2="432.569" y2="939.846" gradientUnits="userSpaceOnUse">
<stop stop-color="#130F0F"/>
<stop offset="1" stop-color="#A82424"/>
</linearGradient>
<linearGradient id="paint2_linear_46:1195" x1="109.078" y1="706.947" x2="108.878" y2="832.177" gradientUnits="userSpaceOnUse">
<stop/>
<stop offset="1" stop-color="#9F3F3F"/>
</linearGradient>
</defs>
</svg>
