<svg width="398" height="641" viewBox="0 0 398 641" fill="none" xmlns="http://www.w3.org/2000/svg">
<path d="M221.989 152.61C222.968 161.664 230.553 166.375 234.224 167.598L245.847 158.422L237.283 147.104C231.777 145.167 221.01 143.556 221.989 152.61Z" fill="#4C413F" stroke="black" stroke-width="3"/>
<path d="M36.5644 539.263C36.8091 536.327 61.7483 521.318 74.1874 514.181L80.6108 504.699L121.598 492.158L312.466 500.416L329.901 527.028L307.266 615.121L74.1874 611.45L18.2117 608.391L21.8822 590.345C26.6743 574.541 36.3197 542.199 36.5644 539.263Z" fill="white" stroke="black" stroke-width="3"/>
<path d="M57.1589 340.022C57.1589 319.642 64.3992 312.913 69.0597 301.674C69.0597 301.674 69.0597 248.984 101.787 248.985C128.798 248.985 141.786 301.674 141.786 301.674L137.489 366.834C128.233 389.594 108.134 436.983 101.787 444.466C95.4396 451.948 54.8448 429.708 35.3408 417.653C36.5529 402.792 42.6135 366.46 57.1589 340.022Z" fill="#4D413F" stroke="black" stroke-width="3"/>
<path d="M295.643 596.768L320.419 527.334L337.854 552.11L295.643 625.215L228.35 607.474L295.643 596.768Z" fill="black" stroke="black"/>
<path d="M71.4345 346.56L93.7636 400.394C90.0931 383.754 92.2342 379.594 93.7636 379.594L71.4345 346.56Z" fill="black" stroke="black"/>
<path d="M26.7761 500.416C38.0324 485.245 48.7994 439.241 52.7758 418.135C65.2556 415.444 85.5047 425.374 94.0693 430.676C97.5359 433.123 104.102 440.587 102.634 450.864C100.799 463.711 74.1872 521.216 61.3404 527.64C51.0629 532.778 31.1604 582.392 22.4938 606.556H2C5.56858 577.498 15.5198 515.588 26.7761 500.416Z" fill="white" stroke="black" stroke-width="3"/>
<path d="M67.7638 524.275L74.1872 512.04L99.881 504.393L153.104 496.746L300.231 504.699L323.784 518.769V527.64H307.266L277.902 521.828C265.769 522.644 239.606 523.785 232.02 521.828C222.538 519.381 156.163 521.522 153.104 521.828C150.045 522.134 142.092 519.381 130.775 524.275C119.457 529.169 100.187 524.275 90.0929 524.275H67.7638Z" fill="black" stroke="black" stroke-width="3"/>
<path opacity="0.5" d="M72.9637 421.5C49.8618 415.461 50.951 431.347 50.6346 433.123V413.587L58.8627 411.1C71.0993 417.139 91.4452 426.331 72.9637 421.5Z" fill="black" stroke="black"/>
<path d="M93.7634 430.371C70.0273 415.199 44.9249 415.383 35.9525 417.524C35.9525 415.791 37.176 411.223 37.176 405.595C51.124 393.849 86.2184 408.857 102.022 417.83C109.159 428.332 117.5 445.542 93.7634 430.371Z" fill="#E15959" stroke="black" stroke-width="3"/>
<path d="M238.138 464.935C183.08 446.093 132.406 472.786 113.951 488.487H126.492C128.634 488.487 144.539 472.888 157.998 472.888C176.106 479.739 192.256 473.092 198.068 468.911C208.162 469.319 230.307 469.095 238.138 464.935Z" fill="#C4C4C4"/>
<path d="M239.424 173.104C240.647 174.532 241.565 180.507 235.447 192.986C229.33 205.466 238.812 236.931 244.318 251.103L327.211 228.468C319.156 221.637 298.948 203.325 282.553 184.728C266.158 166.13 250.231 160.054 244.318 159.34L235.447 167.599L239.424 173.104Z" fill="black" stroke="black" stroke-width="3"/>
<path d="M312.16 595.513L327.454 453.586L303.29 358.183C303.29 358.183 291.195 272.204 244.561 251.431C214.284 237.945 195.621 302.207 195.621 302.207L157.998 245.283C157.998 245.283 157.268 248.84 135.975 261.22C114.681 273.6 125.269 306.245 125.269 329.736C125.269 353.228 119.355 403.657 110.587 429.147C107.003 439.852 99.2693 465.21 98.6575 471.021C98.0458 476.833 72.0461 508.338 65.9286 514.15C61.0345 518.799 39.6227 551.192 39.6229 566.18C52.4698 565.874 99.3303 557.187 110.587 557.921C121.843 558.655 152.084 585.012 170.845 580.831C196.844 585.725 256.185 585.236 274.537 583.278C292.89 581.321 307.266 590.619 312.16 595.513Z" fill="#1F1C1B" stroke="#1F1D1D" stroke-width="3"/>
<path d="M324.09 601.051L335.659 435.064V337.867C335.659 337.867 361.078 230.25 313.504 209.493C282.615 196.016 222.073 221.413 222.073 221.413L162.784 226.915C162.784 226.915 123.969 232.883 102.246 245.254C80.5234 257.625 105.055 289.329 105.055 312.803C105.055 336.277 104.639 399.201 95.6934 424.672C92.0374 435.37 96.3175 442.916 95.6934 448.723C95.0693 454.531 75.0981 489.776 68.8571 495.583C63.8643 500.229 10.8707 591.568 20.6586 601.051C40.2348 588.521 90.763 584.411 102.246 585.145C113.73 585.879 162.717 596.357 181.856 592.18C208.381 597.071 275.391 578.537 294.114 576.58C312.837 574.624 319.097 596.16 324.09 601.051Z" fill="#4D413F" stroke="black" stroke-width="3"/>
<path d="M331.125 200.35C353.148 200.351 374.988 235.159 381.595 291.196C385.754 308.325 393.116 337.893 396.277 350.536L390.465 384.183C389.649 387.751 386.733 395.623 381.595 398.559C376.456 401.496 376.598 373.273 377.312 358.795C359.061 368.277 322.744 388.588 323.478 393.971C318.584 386.141 315.117 352.575 313.996 336.772L308.796 297.925C307.062 294.663 304.636 284.895 308.796 271.926C302.433 260.18 303.29 249.087 304.513 245.008C304.513 245.008 275.546 212.791 288.302 207.079C308.795 197.903 317.666 200.35 331.125 200.35Z" fill="#4D413F" stroke="black" stroke-width="3"/>
<path d="M303.596 247.455L312.466 327.595" stroke="#4D413F" stroke-width="10"/>
<path d="M94.6812 252.655L96.2103 274.373L102.634 295.479" stroke="#4D413F" stroke-width="10"/>
<path d="M315.679 347.477C312.376 330.19 317.055 317.864 319.807 313.862C311.137 303.106 313.443 292.733 315.679 288.891C315.679 284.569 314.337 274.869 308.97 270.643C303.602 266.417 298.476 278.807 296.584 285.53C296.24 296.735 299.577 324.811 315.679 347.477Z" fill="black" stroke="black"/>
<path d="M302.678 417.83L329.901 473.499V451.782L302.678 417.83Z" fill="black"/>
<path d="M138.531 417.453C127.199 443.358 103.704 472.613 93.3723 484.002L81.2221 495.829C88.8678 496.259 112.361 496.476 135.958 460.574C165.454 415.696 193.203 445.142 208.159 455.891C220.125 464.491 247.786 467.937 260.122 468.584C258.086 467.457 252.731 464.525 247.6 461.818C239.351 458.735 231.115 450.758 205.169 432.636C177.434 398.296 154.792 400.677 138.531 417.453Z" fill="black"/>
<path d="M234.773 163.951C238.666 177.104 236.364 212.891 272.09 212.891C251.597 227.268 174.515 240.115 169.621 237.362C165.706 235.159 162.892 231.958 163.198 230.632C167.582 221.15 165.033 184.996 156.468 163.951C147.904 142.907 179.289 168.743 191.422 177.104L234.773 163.951Z" fill="white" stroke="black" stroke-width="3"/>
<path d="M189.197 200.962C165.951 197.407 152.475 153.863 149.127 132.14L136.281 92.3866L142.523 65.3067L174.004 49.8324L211.728 37.9292L239.409 68.8776C241.49 80.8801 247.008 106.509 247.008 113.515C247.008 120.062 246.361 143.651 234.467 162.422C217.247 189.6 209.416 204.055 189.197 200.962Z" fill="black" stroke="black" stroke-width="3"/>
<path d="M195.009 187.504C161.668 187.504 138.524 137.339 134.751 115.01L127.716 80.4462L134.751 52.6112L170.233 36.7056L212.75 24.4705L243.95 56.2818C246.295 68.6189 252.514 94.9624 252.514 102.164C252.514 108.893 244.406 141.472 235.997 156.61C222.232 181.386 211.058 187.504 195.009 187.504Z" fill="white" stroke="black" stroke-width="3"/>
<path d="M182.774 155.362C183.762 155.362 196.938 163.039 208.468 154.162" stroke="black"/>
<path d="M182.774 155.362C182.893 155.362 183.19 155.474 183.64 155.655C194.325 159.102 204.829 156.411 208.468 154.162C198.33 161.968 186.919 156.974 183.64 155.655C183.351 155.562 183.063 155.464 182.774 155.362Z" fill="url(#paint0_linear_38_635)"/>
<path d="M169.315 151.715C175.127 151.715 185.582 146.534 190.115 148.045C193.786 149.268 195.621 149.268 199.903 147.433C205.985 144.826 208.774 148.045 220.703 146.821" stroke="black" stroke-width="2"/>
<path d="M185.221 131.222C184.609 130.202 182.957 128.469 181.245 129.693" stroke="black"/>
<path d="M123.739 50.1637C124.963 40.3756 133.466 18.7194 157.692 10.3995C178.981 -0.612089 204.797 -0.307124 232.326 15.2935C245.173 22.5739 248.966 30.0367 249.455 41.2931C249.945 52.5494 246.396 56.3831 244.561 56.8929L210.609 50.1637L166.256 53.2223L128.633 61.7869L123.739 50.1637Z" fill="#E15959" stroke="black" stroke-width="3"/>
<path d="M137.198 71.5757C135.771 83.403 133.344 108.954 135.057 116.54C137.198 126.022 113.601 92.1169 117.622 81.0579C121.292 70.9639 128.633 67.5993 135.057 66.6816L137.198 71.5757Z" fill="black" stroke="black" stroke-width="3"/>
<path d="M230.797 65.1521C233.958 66.8854 241.197 71.7591 244.867 77.3872C248.538 83.0154 251.495 97.2693 252.514 103.693L265.055 91.4576C264.851 85.9518 263.403 74.3285 259.244 71.8814C255.084 69.4344 245.479 59.8502 241.197 55.364L230.797 65.1521Z" fill="black" stroke="black" stroke-width="3"/>
<path d="M159.527 59.9521C154.021 63.9286 144.172 73.5331 148.821 80.1401" stroke="black"/>
<path d="M117.316 80.7518C110.485 71.2696 106.855 50.164 146.987 41.5994C197.151 30.8937 255.267 32.4231 261.385 56.5874C265.3 64.4178 261.385 70.0459 258.938 71.8811C231.001 61.2775 163.565 48.2066 117.316 80.7518Z" fill="#E15959" stroke="black" stroke-width="3"/>
<path d="M117.294 80.752C110.468 72.7177 107.734 58.6921 146.942 47.5782C195.009 33.9529 255.141 39.8031 261.254 60.2775C265.166 66.9121 261.254 71.6808 258.809 73.2359C230.893 64.2514 163.508 53.1764 117.294 80.752Z" fill="#4C413F" stroke="black" stroke-width="3"/>
<path d="M176.497 81.6755C167.148 80.9919 147.295 80.833 142.68 85.6663C144.543 78.4522 150.02 76.113 152.525 75.8451C159.012 74.6741 172.889 74.2007 176.497 81.6755Z" fill="black" stroke="black"/>
<path d="M172.341 74.2046C172.93 76.8257 173.563 82.5967 171.39 84.7123" stroke="white"/>
<path d="M174.059 75.3177C174.647 77.9387 175.281 83.7097 173.108 85.8254" stroke="white"/>
<path d="M145.856 99.6003C146.266 99.1239 162.761 73.1482 177.3 98.4298C161.204 104.699 150.842 102.406 145.856 99.6003Z" fill="black" stroke="black"/>
<path d="M146.171 95.7677C146.581 95.2913 162.409 71.6502 177.279 95.4395" stroke="black"/>
<path d="M149.258 97.2461C150.646 99.6989 150.885 100.999 148.611 102.501" stroke="black"/>
<path d="M149.947 97.991C151.203 100.812 151.341 101.731 149.301 103.246" stroke="black"/>
<path d="M151.772 98.7285C153.131 101.31 153.203 102.726 150.679 104.737" stroke="black"/>
<path d="M151.082 97.9831C152.442 100.565 152.514 101.981 149.989 103.991" stroke="black"/>
<path d="M153.037 98.7187C154.568 101.371 154.708 102.913 151.368 105.481" stroke="black"/>
<path d="M154.405 98.7092C155.936 101.361 156.075 102.904 152.735 105.472" stroke="black"/>
<path d="M155.772 98.6997C157.303 101.351 157.442 102.894 154.102 105.462" stroke="black"/>
<path d="M157.14 98.6904C158.671 101.342 158.81 102.885 155.47 105.453" stroke="black"/>
<path d="M152.379 97.5707L148.904 101.403" stroke="white"/>
<path d="M149.952 98.6976C150.3 98.3171 159.383 78.797 176.611 97.752C160.243 103.543 156.795 99.4421 149.952 98.6976Z" fill="white" stroke="white"/>
<path d="M171.123 95.1861C171.151 99.1053 167.34 101.364 162.62 101.397C157.9 101.431 154.058 99.2269 154.03 95.3076C154.002 91.3884 157.806 88.184 162.526 88.1504C167.246 88.1169 171.095 91.2668 171.123 95.1861Z" fill="black"/>
<ellipse cx="162.28" cy="93.9074" rx="0.911163" ry="0.913392" transform="rotate(-0.407385 162.28 93.9074)" fill="white"/>
<path d="M148.949 89.42C149.035 89.784 152.148 91.9817 154.051 91.388C154.773 91.1628 152.621 93.7781 152.621 93.7781C151.187 92.0761 150.383 91.1219 148.949 89.42Z" fill="black"/>
<path d="M150.594 87.2374C150.68 87.6014 153.793 89.7991 155.696 89.2054C156.418 88.9802 154.266 91.5955 154.266 91.5955C152.832 89.8935 152.028 88.9393 150.594 87.2374Z" fill="black"/>
<path d="M146.18 91.7685C146.18 91.7685 149.496 95.0766 151.33 93.6991C152.093 93.1259 149.839 96.1895 149.839 96.1895L146.18 91.7685Z" fill="black"/>
<path d="M142.631 97.6204C142.631 97.6204 146.209 98.6625 148.772 97.9482C149.448 97.7598 148.37 100.045 148.37 100.045L142.631 97.6204Z" fill="black"/>
<path d="M143.429 94.8649C143.429 94.8649 146.825 96.4809 149.457 96.1944C150.151 96.1188 148.775 98.2019 148.775 98.2019L143.429 94.8649Z" fill="black"/>
<path d="M145.199 103.426C146.863 104.508 152.228 106.538 160.385 106.006" stroke="white" stroke-width="5"/>
<path d="M149.286 101.147C150.949 102.229 155.841 103.299 163.998 102.767" stroke="white"/>
<path d="M189.348 110.728C189.348 126.666 186.944 125.666 189.348 130.624C190.727 131.527 189.809 131.527 191.95 131.527" stroke="black"/>
<path d="M196.538 130.916C197.15 129.896 198.741 128.163 200.209 129.387" stroke="black"/>
<ellipse cx="182.576" cy="130.039" rx="1.4996" ry="0.465779" transform="rotate(12.4863 182.576 130.039)" fill="black"/>
<ellipse rx="1.4996" ry="0.465779" transform="matrix(0.976348 -0.216206 -0.216206 -0.976348 198.409 129.86)" fill="black"/>
<path d="M200.821 79.834L202.962 84.4222" stroke="white"/>
<path d="M204.618 94.7879C207.806 86.636 218.009 74.2625 233.314 89.9841C224.852 98.7182 214.183 99.5917 204.618 94.7879Z" fill="black" stroke="black"/>
<path d="M204.618 92.6065C207.806 84.4546 218.009 72.0811 233.314 87.8027" stroke="black"/>
<path d="M205.985 95.5157C209.173 87.3638 219.376 74.9903 234.681 90.7119C226.219 99.446 215.55 100.319 205.985 95.5157Z" fill="black" stroke="black"/>
<path d="M204.959 95.1429C212.817 85.6882 220.332 79.8705 231.606 91.1429C224.773 96.9611 221.699 98.7792 204.959 95.1429Z" fill="white" stroke="white"/>
<path d="M226.208 91.5597C226.208 95.8393 222.648 98.4929 218.256 98.4929C213.863 98.4929 210.303 95.8393 210.303 91.5597C210.303 87.2801 213.863 83.8108 218.256 83.8108C222.648 83.8108 226.208 87.2801 226.208 91.5597Z" fill="black"/>
<path d="M218.867 89.6225C218.867 90.1293 218.457 90.5401 217.95 90.5401C217.443 90.5401 217.032 90.1293 217.032 89.6225C217.032 89.1157 217.443 88.7048 217.95 88.7048C218.457 88.7048 218.867 89.1157 218.867 89.6225Z" fill="white"/>
<path d="M232.684 91.4857C233.596 93.2863 235.465 93.8039 239.855 92.7109" stroke="black"/>
<path d="M232 92.213C232.912 94.0136 234.781 94.5312 239.171 93.4382" stroke="black"/>
<path d="M231.317 92.9405C232.229 94.7411 234.098 95.2587 238.488 94.1657" stroke="black"/>
<path d="M230.634 93.6673C231.546 95.4679 233.415 95.9855 237.805 94.8925" stroke="black"/>
<path d="M229.951 94.3948C230.862 96.1955 232.731 96.7131 237.122 95.6201" stroke="black"/>
<path d="M229.268 95.1224C230.18 96.923 232.049 97.4406 236.439 96.3476" stroke="black"/>
<path d="M228.584 95.8492C229.496 97.6498 231.365 98.1674 235.755 97.0744" stroke="black"/>
<path d="M227.218 95.8492C228.129 97.6498 229.998 98.1674 234.389 97.0744" stroke="black"/>
<path d="M239.755 92.8333C237.78 96.3386 231.572 103.2 222.542 102.602" stroke="white" stroke-width="10"/>
<path d="M235.436 90.9274C234.68 91.871 233.655 92.9619 226.481 97.6895" stroke="white"/>
<path d="M236.73 75.5072C234.68 72.7193 224.637 69.6163 200.86 79.5072C197.854 74.8527 213.5 69.083 221.699 66.78C225.798 66.2951 234.544 67.3617 236.73 75.5072Z" fill="black" stroke="black"/>
<path d="M201.202 73.3247L203.935 79.8702" stroke="white"/>
<path d="M203.252 71.8708L205.985 78.4163" stroke="white"/>
<path d="M229.052 81.4488C228.969 81.8023 225.874 83.9547 223.968 83.3922C223.244 83.1788 225.414 85.6997 225.414 85.6997C226.835 84.0396 227.631 83.1089 229.052 81.4488Z" fill="black"/>
<path d="M232.468 82.9026C232.385 83.2562 229.29 85.4086 227.384 84.8461C226.66 84.6327 228.83 87.1536 228.83 87.1536C230.251 85.4935 231.047 84.5627 232.468 82.9026Z" fill="black"/>
<path d="M235.201 85.0848C235.118 85.4383 232.023 87.5907 230.117 87.0282C229.394 86.8148 231.563 89.3357 231.563 89.3357C232.984 87.6756 233.78 86.7449 235.201 85.0848Z" fill="black"/>
<path d="M237.934 87.2666C237.851 87.6202 234.757 89.7726 232.85 89.2101C232.127 88.9967 234.297 91.5176 234.297 91.5176C235.717 89.8575 236.514 88.9267 237.934 87.2666Z" fill="black"/>
<path d="M260.773 91.4582C258.326 90.7241 254.655 95.8425 253.126 98.4934C251.189 106.14 247.314 123.759 247.314 133.057C250.679 140.093 253.627 139.061 257.102 137.034C260.773 134.893 267.502 103.081 267.502 98.4934C267.502 93.9054 263.832 92.3759 260.773 91.4582Z" fill="white" stroke="black" stroke-width="3"/>
<path d="M181.55 95.4794C190.421 91.4576 193.48 92.0693 201.432 95.4794" stroke="black" stroke-width="3"/>
<path d="M124.351 105.222C132.61 103.693 136.28 99.0592 143.316 97.2693" stroke="black" stroke-width="3"/>
<path d="M237.832 92.9868C246.396 95.3884 248.538 96.9632 254.349 96.9632" stroke="black" stroke-width="3"/>
<path d="M135.057 119.292C133.018 115.01 128.511 106.446 126.798 106.446C124.657 106.446 122.21 109.81 126.798 119.292C131.386 128.775 139.033 147.127 141.48 147.433C143.438 147.678 143.927 145.7 143.927 144.68L135.057 119.292Z" fill="white" stroke="black" stroke-width="3"/>
<path d="M240.891 179.856C233.215 189.139 220.166 210.454 229.377 221.456" stroke="black" stroke-width="2"/>
<path d="M253.8 161.787C273.784 173.308 313.935 200.633 314.669 217.762" stroke="black" stroke-width="2"/>
<path d="M261.385 71.5754C265.055 76.6734 271.295 88.6434 266.891 95.7398" stroke="black"/>
<path d="M117.284 80.314C115.838 84.3086 115.241 95.467 124.426 108.144" stroke="black"/>
<path d="M126.187 106.446C129.347 107.159 133.099 110.422 122.822 117.763" stroke="black"/>
<path d="M317.36 369.501C320.011 364.913 327.21 355.247 334.795 353.289C342.381 351.332 358.96 344.113 366.301 340.748C371.909 340.035 384.042 340.32 387.712 347.172C391.383 354.023 392.504 364.913 392.606 369.501C392.504 375.414 390.404 389.383 382.818 397.947C382.084 387.915 381.901 381.532 381.901 379.595L387.712 369.501C388.324 364.913 388.875 355.859 386.183 356.348C380.371 351.148 320.725 349.619 323.478 394.277C318.584 378.616 317.36 371.234 317.36 369.501Z" fill="#E15959" stroke="black" stroke-width="3"/>
<path d="M380.677 354.819C326.109 351.393 321.031 383.775 325.313 400.395L329.29 446.276C326.537 450.66 325.313 463.711 325.313 481.146C329.229 537.428 309.611 587.796 299.314 605.945C317.666 623.788 355.595 649.318 360.489 608.698C366.607 557.922 378.272 501.725 380.677 432.512C381.731 402.189 380.677 400.395 380.677 354.819Z" fill="white" stroke="black" stroke-width="3"/>
<path d="M346.725 583.921L360.183 581.168C364.099 578.966 365.078 575.56 365.078 574.133C366.505 577.906 368.503 586.185 365.078 589.121C360.795 592.792 325.925 590.956 313.69 587.592C303.902 584.9 309.612 577.498 313.69 574.133C313.588 574.847 313.017 576.764 311.549 578.721C311.304 582.636 334.898 583.819 346.725 583.921Z" fill="black" stroke="black"/>
<path d="M346.623 575.051L360.082 572.298C363.997 570.095 367.218 564.855 367.219 563.427C368.646 567.2 368.197 573.949 364.771 576.886C360.489 580.556 325.824 582.086 313.589 578.721C303.801 576.029 311.753 566.792 315.831 563.427C315.729 564.141 315.831 568.321 313.589 571.38C313.344 575.295 334.796 574.949 346.623 575.051Z" fill="black" stroke="black"/>
<path d="M99.9691 349.809C100.732 337.641 107.359 341.374 107.359 341.374L106.466 396.531L100.177 396.429C100.177 396.429 98.8396 367.826 99.9691 349.809Z" fill="#4D413F"/>
<path d="M158.304 232.467C160.037 235.832 164.85 242.622 170.233 242.867C176.962 243.173 254.349 237.973 270.255 214.115C252.514 222.067 160.139 248.679 163.504 226.35C161.791 226.839 159.221 227.267 155.245 228.491L158.304 232.467Z" fill="#E15959" stroke="black" stroke-width="3"/>
<path d="M183.692 499.202H169.927C174.515 496.347 185.649 490.76 193.48 491.25C201.31 491.739 225.903 488.395 237.22 486.661C239.565 481.257 247.008 472.163 258.02 479.014C292.034 470.694 309.509 490.23 313.996 501.038L316.443 520.002C312.772 518.473 303.596 512.967 296.255 503.179C287.078 490.944 240.279 492.473 237.22 495.838C234.773 498.529 200.515 499.202 183.692 499.202Z" fill="black"/>
<path d="M218.495 308.937C240.866 359.727 254.022 385.179 283.048 417.809C312.074 450.439 302.678 453.311 302.678 453.311L253.603 401.918C232.337 392 193.806 371.623 209.812 369.459C225.209 367.377 232.758 373.472 234.879 377.149C232.197 372.134 225.536 360.133 218.495 348.834C211.247 337.203 215.475 317.39 218.495 308.937Z" fill="#010101"/>
<path d="M280.043 212.145L322.866 204.938L316.749 247.15H280.043V212.145Z" fill="#4C413F"/>
<path d="M149.739 605.639L163.504 595.239C167.419 595.239 183.284 602.172 190.727 605.639H149.739Z" fill="black" stroke="black"/>
<path d="M109.283 330.354C101.278 345.048 100.964 365.489 102.022 375.006C98.1354 348.912 96.5165 349.271 109.283 330.354C110.539 328.048 111.985 325.883 113.645 323.925C112.033 326.3 110.584 328.427 109.283 330.354Z" fill="black"/>
<path d="M102.022 375.006C100.798 363.995 101.41 338.362 113.645 323.925C96.2102 349.619 97.7395 346.254 102.022 375.006Z" stroke="black"/>
<path d="M123.434 48.0227C129.959 36.2974 150.167 11.4397 178.798 5.81152" stroke="black" stroke-width="2"/>
<path d="M198.068 7.03516C210.711 8.15671 238.689 16.6397 249.456 41.5994" stroke="black" stroke-width="2"/>
<path d="M184.304 7.64673C170.437 14.478 144.172 30.2205 150.045 38.5404" stroke="black" stroke-width="2"/>
<path d="M191.644 9.17651C203.676 12.6431 228.595 22.7575 232.02 35.482" stroke="black" stroke-width="2"/>
<path d="M188.28 18.6584V34.5641" stroke="black" stroke-width="2"/>
<path opacity="0.3" d="M325.313 395.195C328.882 384.387 344.828 363.077 380.065 364.301C381.533 358.918 379.046 355.737 377.618 354.819C359.265 353.085 323.111 358.734 325.313 395.195Z" fill="black" stroke="black"/>
<path d="M101.735 423.947C100.13 419.151 98.512 406.381 104.874 393.671C111.236 380.961 128.87 348.607 136.892 334.019C127.266 347.408 112.813 363.872 104.874 376.285C102.92 379.339 93.3639 419.151 101.735 423.947Z" fill="black" stroke="black"/>
<path d="M157.568 258.161C167.111 270.152 218.766 247.353 250.373 228.491C235.385 232.162 228.78 237.343 190.115 240.726C165.645 242.867 166.562 243.479 154.633 228.491C152.696 233.181 148.025 246.171 157.568 258.161Z" fill="black" stroke="black"/>
<path d="M138.421 72.187C136.382 79.1202 134.2 96.4737 141.786 110.422" stroke="black" stroke-width="2"/>
<path d="M233.55 66.9873C238.138 70.5559 246.58 81.9753 243.644 99.1045" stroke="black" stroke-width="2"/>
<path d="M234.773 66.3755C241.095 72.2891 252.331 87.9705 246.703 103.387" stroke="black"/>
<path d="M94.0691 252.043C92.3358 254.083 89.9092 261.403 94.0691 274.373C98.2291 287.342 100.697 295.682 101.41 298.231" stroke="#4D413F" stroke-width="4"/>
<mask id="path-119-inside-1_38_635" fill="white">
<ellipse cx="188.892" cy="2.7529" rx="6.11756" ry="2.7529"/>
</mask>
<ellipse cx="188.892" cy="2.7529" rx="6.11756" ry="2.7529" fill="#692020"/>
<path d="M192.009 2.7529C192.009 2.16966 192.284 1.83177 192.342 1.76982C192.385 1.72405 192.308 1.81879 191.986 1.96373C191.349 2.25068 190.257 2.50581 188.892 2.50581V8.50581C190.905 8.50581 192.872 8.14467 194.448 7.43526C195.743 6.85258 198.009 5.42895 198.009 2.7529H192.009ZM188.892 2.50581C187.526 2.50581 186.435 2.25068 185.797 1.96373C185.475 1.81879 185.398 1.72405 185.441 1.76982C185.499 1.83177 185.774 2.16966 185.774 2.7529H179.774C179.774 5.42895 182.04 6.85258 183.335 7.43526C184.911 8.14467 186.878 8.50581 188.892 8.50581V2.50581ZM185.774 2.7529C185.774 3.33614 185.499 3.67404 185.441 3.73599C185.398 3.78176 185.475 3.68701 185.797 3.54207C186.435 3.25512 187.526 3 188.892 3V-3C186.878 -3 184.911 -2.63886 183.335 -1.92946C182.04 -1.34677 179.774 0.0768541 179.774 2.7529H185.774ZM188.892 3C190.257 3 191.349 3.25512 191.986 3.54207C192.308 3.68701 192.385 3.78176 192.342 3.73599C192.284 3.67404 192.009 3.33614 192.009 2.7529H198.009C198.009 0.0768541 195.743 -1.34677 194.448 -1.92946C192.872 -2.63886 190.905 -3 188.892 -3V3Z" fill="black" mask="url(#path-119-inside-1_38_635)"/>
<path d="M151.574 272.843C113.698 285.539 105.138 355.214 105.592 388.465C99.0522 376.978 100.596 323.223 102.185 297.781C107.749 291.735 125.415 278.284 151.574 272.843Z" fill="black" stroke="black"/>
<path d="M26.5193 619.331L35.8075 580.557L7.19989 638.062L75.6329 627.313L101.41 605.547L26.5193 619.331Z" fill="black" stroke="black"/>
<path d="M181.886 98.2321C181.886 107.628 173.629 115.436 163.198 115.436C152.767 115.436 144.51 107.628 144.51 98.2321C144.51 88.8367 152.767 81.0286 163.198 81.0286C173.629 81.0286 181.886 88.8367 181.886 98.2321Z" fill="white" stroke="black" stroke-width="3"/>
<path d="M236.944 93.9944C236.944 103.077 228.961 110.631 218.868 110.631C208.774 110.631 200.791 103.077 200.791 93.9944C200.791 84.912 208.774 77.3577 218.868 77.3577C228.961 77.3577 236.944 84.912 236.944 93.9944Z" fill="white" stroke="black" stroke-width="3"/>
<path opacity="0.3" d="M379.454 375.007C378.719 370.357 373.642 366.136 371.195 364.607H379.454C379.759 370.011 380.188 379.656 379.454 375.007Z" fill="black"/>
<path d="M240.891 150.798C248.232 147.127 249.761 142.233 251.291 137.951L246.397 132.139C245.479 134.688 243.093 141.989 240.891 150.798Z" fill="black" stroke="black"/>
<path d="M143.598 141.316C142.295 144.66 142.31 152.523 152.798 157.221C148.934 150.174 145.055 143.681 143.598 141.316Z" fill="black" stroke="black"/>
<g style="mix-blend-mode:color-burn">
<mask id="mask0_38_635" style="mask-type:alpha" maskUnits="userSpaceOnUse" x="0" y="2" width="398" height="639">
<path d="M221.989 154.691C222.968 163.745 230.553 168.456 234.224 169.679L245.847 160.503L237.283 149.185C231.777 147.248 221.01 145.637 221.989 154.691Z" fill="#4C413F" stroke="black" stroke-width="3"/>
<path d="M36.5644 541.344C36.8091 538.408 61.7483 523.399 74.1874 516.262L80.6108 506.78L121.598 494.239L312.466 502.497L329.901 529.109L307.266 617.202L74.1874 613.531L18.2117 610.472L21.8822 592.426C26.6743 576.622 36.3197 544.28 36.5644 541.344Z" fill="white" stroke="black" stroke-width="3"/>
<path d="M57.1589 342.103C57.1589 321.723 64.3992 314.994 69.0597 303.755C69.0597 303.755 69.0597 251.065 101.787 251.065C128.798 251.066 141.786 303.755 141.786 303.755L137.489 368.915C128.233 391.674 108.134 439.064 101.787 446.546C95.4396 454.029 54.8448 431.789 35.3408 419.734C36.5529 404.873 42.6135 368.541 57.1589 342.103Z" fill="#4D413F" stroke="black" stroke-width="3"/>
<path d="M295.643 598.849L320.419 529.415L337.854 554.191L295.643 627.296L228.35 609.555L295.643 598.849Z" fill="black" stroke="black"/>
<path d="M71.4344 348.641L93.7635 402.475C90.093 385.835 92.2342 381.675 93.7635 381.675L71.4344 348.641Z" fill="black" stroke="black"/>
<path d="M26.7761 502.497C38.0324 487.326 48.7994 441.322 52.7758 420.216C65.2556 417.524 85.5047 427.455 94.0693 432.757C97.5359 435.204 104.102 442.668 102.634 452.945C100.799 465.792 74.1872 523.297 61.3404 529.72C51.0629 534.859 31.1604 584.473 22.4938 608.637H2C5.56858 579.579 15.5198 517.669 26.7761 502.497Z" fill="white" stroke="black" stroke-width="3"/>
<path d="M67.7637 526.356L74.1872 514.121L99.8809 506.474L153.104 498.827L300.231 506.78L323.784 520.85V529.721H307.266L277.902 523.909C265.769 524.725 239.606 525.867 232.02 523.909C222.538 521.462 156.163 523.603 153.104 523.909C150.045 524.215 142.092 521.462 130.775 526.356C119.457 531.25 100.187 526.356 90.0928 526.356H67.7637Z" fill="black" stroke="black" stroke-width="3"/>
<path opacity="0.5" d="M72.9637 423.581C49.8618 417.542 50.951 433.428 50.6346 435.204V415.667L58.8627 413.181C71.0993 419.219 91.4452 428.411 72.9637 423.581Z" fill="black" stroke="black"/>
<path d="M93.7633 432.452C70.0272 417.28 44.9248 417.464 35.9524 419.605C35.9524 417.871 37.1759 413.304 37.1759 407.676C51.1239 395.93 86.2184 410.938 102.022 419.911C109.159 430.412 117.499 447.623 93.7633 432.452Z" fill="#E15959" stroke="black" stroke-width="3"/>
<path d="M238.138 467.015C183.08 448.173 132.406 474.866 113.951 490.568H126.492C128.634 490.568 144.539 474.968 157.998 474.968C176.106 481.82 192.256 475.172 198.068 470.992C208.162 471.4 230.307 471.175 238.138 467.015Z" fill="#C4C4C4"/>
<path d="M239.424 175.185C240.647 176.613 241.565 182.587 235.447 195.067C229.33 207.547 238.812 239.012 244.318 253.184L327.211 230.549C319.156 223.718 298.948 205.406 282.553 186.809C266.157 168.211 250.231 162.134 244.318 161.421L235.447 169.679L239.424 175.185Z" fill="black" stroke="black" stroke-width="3"/>
<path d="M312.16 597.594L327.454 455.667L303.29 360.264C303.29 360.264 291.195 274.285 244.561 253.512C214.284 240.025 195.621 304.288 195.621 304.288L157.998 247.364C157.998 247.364 157.268 250.921 135.975 263.301C114.681 275.681 125.269 308.326 125.269 331.817C125.269 355.309 119.355 405.738 110.587 431.227C107.003 441.933 99.2693 467.29 98.6575 473.102C98.0458 478.914 72.0461 510.419 65.9286 516.231C61.0345 520.88 39.6227 553.273 39.6229 568.261C52.4698 567.955 99.3303 559.268 110.587 560.002C121.843 560.736 152.084 587.092 170.845 582.912C196.844 587.806 256.185 587.317 274.537 585.359C292.89 583.402 307.266 592.7 312.16 597.594Z" fill="#1F1C1B" stroke="#1F1D1D" stroke-width="3"/>
<path d="M324.09 603.132L335.659 437.145V339.948C335.659 339.948 361.078 232.331 313.504 211.574C282.615 198.097 222.073 223.494 222.073 223.494L162.784 228.996C162.784 228.996 123.969 234.964 102.246 247.335C80.5234 259.706 105.055 291.41 105.055 314.884C105.055 338.358 104.639 401.282 95.6934 426.753C92.0374 437.45 96.3175 444.997 95.6934 450.804C95.0693 456.612 75.0981 491.856 68.8571 497.664C63.8643 502.31 10.8707 593.649 20.6586 603.132C40.2348 590.601 90.763 586.492 102.246 587.226C113.73 587.959 162.717 598.438 181.856 594.261C208.381 599.151 275.391 580.617 294.114 578.661C312.837 576.705 319.097 598.241 324.09 603.132Z" fill="#4D413F" stroke="black" stroke-width="3"/>
<path d="M331.125 202.431C353.148 202.431 374.987 237.24 381.594 293.276C385.754 310.406 393.116 339.974 396.277 352.617L390.465 386.263C389.649 389.832 386.733 397.703 381.594 400.64C376.456 403.576 376.598 375.354 377.312 360.876C359.061 370.358 322.743 390.668 323.478 396.052C318.584 388.221 315.117 354.656 313.995 338.852L308.796 300.006C307.062 296.743 304.636 286.975 308.796 274.006C302.433 262.26 303.29 251.167 304.513 247.089C304.513 247.089 275.546 214.871 288.302 209.16C308.795 199.984 317.666 202.43 331.125 202.431Z" fill="#4D413F" stroke="black" stroke-width="3"/>
<path d="M303.596 249.536L312.466 329.676" stroke="#4D413F" stroke-width="10"/>
<path d="M94.6811 254.736L96.2102 276.453L102.634 297.559" stroke="#4D413F" stroke-width="10"/>
<path d="M315.679 349.558C312.376 332.27 317.055 319.945 319.807 315.943C311.137 305.186 313.443 294.814 315.679 290.972C315.679 286.65 314.337 276.95 308.97 272.724C303.602 268.498 298.476 280.888 296.584 287.611C296.24 298.816 299.577 326.892 315.679 349.558Z" fill="black" stroke="black"/>
<path d="M302.678 419.91L329.901 475.58V453.863L302.678 419.91Z" fill="black"/>
<path d="M138.531 419.533C127.199 445.439 103.704 474.694 93.3723 486.083L81.2221 497.909C88.8678 498.34 112.361 498.557 135.958 462.655C165.454 417.777 193.203 447.222 208.159 457.972C220.125 466.572 247.786 470.017 260.122 470.665C258.086 469.538 252.731 466.606 247.6 463.899C239.351 460.816 231.115 452.839 205.169 434.717C177.434 400.377 154.792 402.758 138.531 419.533Z" fill="black"/>
<path d="M234.773 166.032C238.666 179.185 236.364 214.972 272.09 214.972C251.597 229.348 174.515 242.195 169.621 239.442C165.706 237.24 162.892 234.039 163.198 232.713C167.582 223.231 165.033 187.076 156.468 166.032C147.904 144.988 179.289 170.824 191.422 179.184L234.773 166.032Z" fill="white" stroke="black" stroke-width="3"/>
<path d="M189.197 203.043C165.951 199.488 152.475 155.944 149.127 134.22L136.281 94.4674L142.523 67.3875L174.004 51.9133L211.727 40.01L239.409 70.9585C241.49 82.9609 247.008 108.59 247.008 115.596C247.008 122.142 246.361 145.731 234.467 164.502C217.247 191.681 209.416 206.135 189.197 203.043Z" fill="black" stroke="black" stroke-width="3"/>
<path d="M195.009 189.584C161.668 189.584 138.524 139.42 134.751 117.091L127.716 82.5267L134.751 54.6918L170.233 38.7862L212.75 26.551L243.95 58.3624C246.295 70.6994 252.514 97.043 252.514 104.244C252.514 110.973 244.406 143.553 235.997 158.69C222.232 183.467 211.058 189.584 195.009 189.584Z" fill="white" stroke="black" stroke-width="3"/>
<path d="M182.774 157.443C183.762 157.443 196.938 165.12 208.468 156.243" stroke="black"/>
<path d="M182.774 157.443C182.893 157.443 183.19 157.555 183.64 157.736C194.325 161.183 204.829 158.491 208.468 156.243C198.33 164.049 186.919 159.055 183.64 157.736C183.351 157.643 183.063 157.545 182.774 157.443Z" fill="url(#paint1_linear_38_635)"/>
<path d="M169.315 153.796C175.127 153.796 185.582 148.615 190.115 150.125C193.785 151.348 195.621 151.349 199.903 149.514C205.985 146.907 208.774 150.126 220.703 148.902" stroke="black" stroke-width="2"/>
<path d="M185.221 133.303C184.609 132.283 182.957 130.55 181.245 131.773" stroke="black"/>
<path d="M123.739 52.2445C124.963 42.4564 133.466 20.8002 157.692 12.4803C178.981 1.46872 204.797 1.77369 232.326 17.3744C245.173 24.6548 248.966 32.1176 249.455 43.3739C249.945 54.6302 246.396 58.4639 244.561 58.9737L210.609 52.2445L166.256 55.3031L128.633 63.8677L123.739 52.2445Z" fill="#E15959" stroke="black" stroke-width="3"/>
<path d="M137.198 73.6565C135.771 85.4838 133.344 111.035 135.057 118.621C137.198 128.103 113.601 94.1977 117.622 83.1387C121.292 73.0447 128.633 69.6801 135.057 68.7625L137.198 73.6565Z" fill="black" stroke="black" stroke-width="3"/>
<path d="M230.797 67.2329C233.958 68.9662 241.197 73.8399 244.867 79.468C248.538 85.0962 251.495 99.3501 252.514 105.774L265.055 93.5384C264.851 88.0326 263.403 76.4093 259.244 73.9622C255.084 71.5152 245.479 61.931 241.197 57.4448L230.797 67.2329Z" fill="black" stroke="black" stroke-width="3"/>
<path d="M159.527 62.033C154.021 66.0094 144.172 75.6139 148.821 82.2209" stroke="black"/>
<path d="M117.316 82.8326C110.485 73.3504 106.855 52.2448 146.986 43.6802C197.151 32.9745 255.267 34.5039 261.385 58.6683C265.3 66.4986 261.385 72.1267 258.938 73.962C231.001 63.3583 163.565 50.2874 117.316 82.8326Z" fill="#E15959" stroke="black" stroke-width="3"/>
<path d="M117.294 82.8328C110.468 74.7985 107.734 60.7729 146.942 49.659C195.009 36.0337 255.141 41.8839 261.254 62.3583C265.166 68.9929 261.254 73.7617 258.809 75.3167C230.893 66.3322 163.508 55.2572 117.294 82.8328Z" fill="#4C413F" stroke="black" stroke-width="3"/>
<path d="M176.497 83.756C167.148 83.0725 147.295 82.9136 142.68 87.7468C144.543 80.5327 150.02 78.1935 152.525 77.9257C159.012 76.7546 172.889 76.2812 176.497 83.756Z" fill="black" stroke="black"/>
<path d="M172.341 76.2852C172.93 78.9062 173.563 84.6773 171.39 86.7929" stroke="white"/>
<path d="M174.059 77.3982C174.647 80.0193 175.281 85.7903 173.108 87.9059" stroke="white"/>
<path d="M145.856 101.681C146.266 101.204 162.761 75.2285 177.3 100.51C161.204 106.779 150.842 104.486 145.856 101.681Z" fill="black" stroke="black"/>
<path d="M146.171 97.8482C146.581 97.3718 162.409 73.7308 177.279 97.5201" stroke="black"/>
<path d="M149.258 99.3264C150.646 101.779 150.885 103.079 148.611 104.582" stroke="black"/>
<path d="M149.947 100.072C151.202 102.893 151.341 103.812 149.301 105.327" stroke="black"/>
<path d="M151.772 100.809C153.131 103.391 153.203 104.807 150.679 106.817" stroke="black"/>
<path d="M151.082 100.064C152.442 102.646 152.514 104.061 149.989 106.072" stroke="black"/>
<path d="M153.037 100.799C154.568 103.451 154.707 104.994 151.368 107.562" stroke="black"/>
<path d="M154.405 100.79C155.935 103.442 156.075 104.984 152.735 107.552" stroke="black"/>
<path d="M155.772 100.78C157.303 103.432 157.442 104.975 154.102 107.543" stroke="black"/>
<path d="M157.14 100.771C158.67 103.423 158.81 104.966 155.47 107.533" stroke="black"/>
<path d="M152.379 99.6515L148.904 103.483" stroke="white"/>
<path d="M149.952 100.778C150.3 100.398 159.383 80.8776 176.611 99.8325C160.243 105.624 156.795 101.523 149.952 100.778Z" fill="white" stroke="white"/>
<path d="M171.123 97.2669C171.151 101.186 167.34 103.444 162.62 103.478C157.9 103.511 154.058 101.308 154.03 97.3884C154.002 93.4692 157.806 90.2648 162.526 90.2312C167.246 90.1977 171.095 93.3476 171.123 97.2669Z" fill="black"/>
<ellipse cx="162.28" cy="95.9879" rx="0.911163" ry="0.913392" transform="rotate(-0.407385 162.28 95.9879)" fill="white"/>
<path d="M148.949 91.5005C149.035 91.8645 152.147 94.0623 154.051 93.4686C154.773 93.2434 152.621 95.8586 152.621 95.8586C151.187 94.1567 150.383 93.2025 148.949 91.5005Z" fill="black"/>
<path d="M150.594 89.3182C150.68 89.6822 153.793 91.8799 155.696 91.2862C156.418 91.061 154.266 93.6763 154.266 93.6763C152.832 91.9743 152.028 91.0201 150.594 89.3182Z" fill="black"/>
<path d="M146.18 93.849C146.18 93.849 149.496 97.1571 151.33 95.7797C152.093 95.2064 149.839 98.2701 149.839 98.2701L146.18 93.849Z" fill="black"/>
<path d="M142.631 99.7009C142.631 99.7009 146.208 100.743 148.772 100.029C149.448 99.8404 148.37 102.126 148.37 102.126L142.631 99.7009Z" fill="black"/>
<path d="M143.429 96.9455C143.429 96.9455 146.825 98.5614 149.457 98.2749C150.151 98.1994 148.775 100.282 148.775 100.282L143.429 96.9455Z" fill="black"/>
<path d="M145.199 105.507C146.863 106.588 152.228 108.619 160.385 108.087" stroke="white" stroke-width="5"/>
<path d="M149.286 103.228C150.949 104.309 155.841 105.379 163.998 104.847" stroke="white"/>
<path d="M189.348 112.809C189.348 128.747 186.944 127.746 189.348 132.705C190.727 133.608 189.809 133.608 191.95 133.608" stroke="black"/>
<path d="M196.538 132.997C197.15 131.977 198.741 130.244 200.209 131.467" stroke="black"/>
<ellipse cx="182.576" cy="132.12" rx="1.4996" ry="0.465779" transform="rotate(12.4863 182.576 132.12)" fill="black"/>
<ellipse rx="1.4996" ry="0.465779" transform="matrix(0.976348 -0.216206 -0.216206 -0.976348 198.409 131.94)" fill="black"/>
<path d="M200.821 81.9148L202.962 86.503" stroke="white"/>
<path d="M204.618 96.8685C207.806 88.7165 218.009 76.3431 233.314 92.0646C224.852 100.799 214.183 101.672 204.618 96.8685Z" fill="black" stroke="black"/>
<path d="M204.618 94.6871C207.806 86.5351 218.009 74.1617 233.314 89.8833" stroke="black"/>
<path d="M205.985 97.5965C209.173 89.4446 219.376 77.0711 234.681 92.7927C226.219 101.527 215.55 102.4 205.985 97.5965Z" fill="black" stroke="black"/>
<path d="M204.959 97.2235C212.817 87.7687 220.332 81.9511 231.606 93.2235C224.773 99.0416 221.699 100.86 204.959 97.2235Z" fill="white" stroke="white"/>
<path d="M226.208 93.6403C226.208 97.9199 222.648 100.574 218.255 100.574C213.863 100.574 210.303 97.9199 210.303 93.6403C210.303 89.3607 213.863 85.8914 218.255 85.8914C222.648 85.8914 226.208 89.3607 226.208 93.6403Z" fill="black"/>
<path d="M218.867 91.703C218.867 92.2098 218.457 92.6207 217.95 92.6207C217.443 92.6207 217.032 92.2098 217.032 91.703C217.032 91.1962 217.443 90.7854 217.95 90.7854C218.457 90.7854 218.867 91.1962 218.867 91.703Z" fill="white"/>
<path d="M232.684 93.5662C233.596 95.3668 235.465 95.8845 239.855 94.7914" stroke="black"/>
<path d="M232 94.2938C232.912 96.0944 234.781 96.612 239.171 95.519" stroke="black"/>
<path d="M231.317 95.0211C232.229 96.8217 234.098 97.3393 238.488 96.2463" stroke="black"/>
<path d="M230.634 95.7479C231.546 97.5485 233.415 98.0661 237.805 96.9731" stroke="black"/>
<path d="M229.95 96.4756C230.862 98.2763 232.731 98.7939 237.122 97.7009" stroke="black"/>
<path d="M229.268 97.2029C230.18 99.0036 232.049 99.5212 236.439 98.4282" stroke="black"/>
<path d="M228.584 97.9297C229.496 99.7304 231.365 100.248 235.755 99.155" stroke="black"/>
<path d="M227.217 97.9297C228.129 99.7304 229.998 100.248 234.389 99.155" stroke="black"/>
<path d="M239.755 94.9142C237.78 98.4194 231.572 105.28 222.542 104.682" stroke="white" stroke-width="10"/>
<path d="M235.436 93.008C234.68 93.9515 233.655 95.0424 226.481 99.77" stroke="white"/>
<path d="M236.73 77.588C234.68 74.8001 224.637 71.6971 200.86 81.588C197.854 76.9335 213.5 71.1638 221.699 68.8608C225.798 68.3759 234.544 69.4425 236.73 77.588Z" fill="black" stroke="black"/>
<path d="M201.202 75.4053L203.935 81.9507" stroke="white"/>
<path d="M203.252 73.9514L205.984 80.4969" stroke="white"/>
<path d="M229.052 83.5293C228.969 83.8829 225.874 86.0353 223.968 85.4728C223.244 85.2594 225.414 87.7803 225.414 87.7803C226.835 86.1202 227.631 85.1894 229.052 83.5293Z" fill="black"/>
<path d="M232.468 84.9832C232.385 85.3367 229.29 87.4891 227.384 86.9266C226.66 86.7132 228.83 89.2342 228.83 89.2342C230.251 87.5741 231.047 86.6433 232.468 84.9832Z" fill="black"/>
<path d="M235.201 87.1653C235.118 87.5189 232.023 89.6713 230.117 89.1088C229.394 88.8954 231.563 91.4163 231.563 91.4163C232.984 89.7562 233.78 88.8254 235.201 87.1653Z" fill="black"/>
<path d="M237.934 89.3472C237.851 89.7007 234.756 91.8531 232.85 91.2906C232.127 91.0773 234.296 93.5982 234.296 93.5982C235.717 91.9381 236.514 91.0073 237.934 89.3472Z" fill="black"/>
<path d="M260.773 93.539C258.326 92.8049 254.655 97.9233 253.126 100.574C251.189 108.221 247.314 125.84 247.314 135.138C250.679 142.173 253.627 141.142 257.102 139.115C260.773 136.974 267.502 105.162 267.502 100.574C267.502 95.9862 263.832 94.4567 260.773 93.539Z" fill="white" stroke="black" stroke-width="3"/>
<path d="M181.55 97.5602C190.421 93.5384 193.48 94.1502 201.432 97.5602" stroke="black" stroke-width="3"/>
<path d="M124.351 107.303C132.61 105.774 136.28 101.14 143.316 99.3501" stroke="black" stroke-width="3"/>
<path d="M237.832 95.0676C246.396 97.4692 248.538 99.044 254.349 99.044" stroke="black" stroke-width="3"/>
<path d="M135.057 121.373C133.018 117.091 128.511 108.526 126.798 108.526C124.657 108.526 122.21 111.891 126.798 121.373C131.386 130.855 139.033 149.208 141.48 149.514C143.438 149.759 143.927 147.781 143.927 146.761L135.057 121.373Z" fill="white" stroke="black" stroke-width="3"/>
<path d="M240.891 181.937C233.215 191.22 220.166 212.535 229.377 223.537" stroke="black" stroke-width="2"/>
<path d="M253.8 163.867C273.784 175.389 313.935 202.714 314.669 219.843" stroke="black" stroke-width="2"/>
<path d="M261.385 73.6562C265.055 78.7542 271.295 90.7242 266.891 97.8206" stroke="black"/>
<path d="M117.284 82.3948C115.838 86.3894 115.241 97.5478 124.426 110.225" stroke="black"/>
<path d="M126.186 108.526C129.347 109.24 133.099 112.503 122.822 119.844" stroke="black"/>
<path d="M317.36 371.582C320.011 366.994 327.21 357.328 334.795 355.37C342.381 353.413 358.96 346.194 366.301 342.829C371.909 342.115 384.042 342.401 387.712 349.253C391.383 356.104 392.504 366.994 392.606 371.582C392.504 377.495 390.404 391.464 382.818 400.028C382.084 389.995 381.901 383.613 381.901 381.675L387.712 371.582C388.324 366.993 388.875 357.939 386.183 358.429C380.371 353.229 320.725 351.699 323.478 396.358C318.584 380.697 317.36 373.315 317.36 371.582Z" fill="#E15959" stroke="black" stroke-width="3"/>
<path d="M380.677 356.9C326.108 353.474 321.031 385.856 325.313 402.476L329.29 448.357C326.537 452.741 325.313 465.792 325.313 483.227C329.228 539.509 309.611 589.877 299.313 608.025C317.666 625.868 355.595 651.399 360.489 610.778C366.607 560.003 378.272 503.806 380.677 434.593C381.731 404.27 380.677 402.476 380.677 356.9Z" fill="white" stroke="black" stroke-width="3"/>
<path d="M346.725 586.002L360.183 583.249C364.099 581.047 365.078 577.641 365.078 576.214C366.505 579.986 368.503 588.265 365.078 591.202C360.795 594.872 325.925 593.037 313.69 589.673C303.902 586.981 309.612 579.579 313.69 576.214C313.588 576.928 313.017 578.844 311.549 580.802C311.304 584.717 334.898 585.9 346.725 586.002Z" fill="black" stroke="black"/>
<path d="M346.623 577.131L360.082 574.379C363.997 572.176 367.218 566.935 367.219 565.508C368.646 569.281 368.197 576.03 364.771 578.967C360.489 582.637 325.824 584.167 313.589 580.802C303.801 578.11 311.753 568.873 315.831 565.508C315.729 566.222 315.831 570.402 313.589 573.461C313.344 577.376 334.796 577.029 346.623 577.131Z" fill="black" stroke="black"/>
<path d="M99.9691 351.89C100.732 339.722 107.359 343.454 107.359 343.454L106.466 398.611L100.177 398.509C100.177 398.509 98.8396 369.906 99.9691 351.89Z" fill="#4D413F"/>
<path d="M158.304 234.548C160.037 237.913 164.849 244.703 170.233 244.948C176.962 245.254 254.349 240.054 270.255 216.195C252.514 224.148 160.139 250.76 163.504 228.43C161.791 228.92 159.221 229.348 155.245 230.572L158.304 234.548Z" fill="#E15959" stroke="black" stroke-width="3"/>
<path d="M183.692 501.283H169.927C174.515 498.428 185.649 492.841 193.48 493.331C201.31 493.82 225.903 490.476 237.22 488.742C239.565 483.338 247.008 474.244 258.02 481.095C292.034 472.776 309.509 492.311 313.996 503.119L316.443 522.083C312.772 520.554 303.596 515.048 296.255 505.26C287.078 493.025 240.279 494.554 237.22 497.919C234.773 500.61 200.515 501.283 183.692 501.283Z" fill="black"/>
<path d="M218.495 311.018C240.866 361.808 254.022 387.26 283.048 419.89C312.074 452.52 302.678 455.392 302.678 455.392L253.603 403.999C232.336 394.081 193.806 373.704 209.812 371.54C225.209 369.458 232.758 375.553 234.879 379.23C232.197 374.214 225.536 362.214 218.495 350.915C211.246 339.284 215.475 319.47 218.495 311.018Z" fill="#010101"/>
<path d="M280.043 214.226L322.866 207.019L316.749 249.23H280.043V214.226Z" fill="#4C413F"/>
<path d="M149.739 607.719L163.504 597.319C167.419 597.319 183.284 604.253 190.727 607.719H149.739Z" fill="black" stroke="black"/>
<path d="M109.283 332.435C101.278 347.129 100.964 367.57 102.022 377.087C98.1354 350.993 96.5164 351.352 109.283 332.435C110.539 330.129 111.985 327.964 113.645 326.006C112.033 328.381 110.583 330.508 109.283 332.435Z" fill="black"/>
<path d="M102.022 377.087C100.798 366.076 101.41 340.443 113.645 326.006C96.2101 351.699 97.7395 348.335 102.022 377.087Z" stroke="black"/>
<path d="M123.434 50.1035C129.959 38.3782 150.167 13.5205 178.797 7.89233" stroke="black" stroke-width="2"/>
<path d="M198.068 9.11597C210.711 10.2375 238.689 18.7205 249.456 43.6802" stroke="black" stroke-width="2"/>
<path d="M184.304 9.72754C170.437 16.5588 144.172 32.3013 150.045 40.6212" stroke="black" stroke-width="2"/>
<path d="M191.644 11.2573C203.676 14.7239 228.594 24.8383 232.02 37.5628" stroke="black" stroke-width="2"/>
<path d="M188.28 20.7393V36.6449" stroke="black" stroke-width="2"/>
<path opacity="0.3" d="M325.313 397.275C328.882 386.467 344.828 365.158 380.065 366.381C381.533 360.998 379.046 357.817 377.618 356.899C359.265 355.166 323.111 360.814 325.313 397.275Z" fill="black" stroke="black"/>
<path d="M101.735 426.028C100.13 421.232 98.512 408.462 104.874 395.752C111.236 383.042 128.87 350.688 136.892 336.1C127.266 349.489 112.813 365.953 104.874 378.366C102.92 381.42 93.3639 421.232 101.735 426.028Z" fill="black" stroke="black"/>
<path d="M157.568 260.242C167.111 272.232 218.765 249.434 250.373 230.572C235.385 234.242 228.78 239.424 190.115 242.807C165.645 244.948 166.562 245.56 154.633 230.572C152.696 235.262 148.025 248.252 157.568 260.242Z" fill="black" stroke="black"/>
<path d="M138.421 74.2678C136.382 81.2011 134.2 98.5545 141.786 112.503" stroke="black" stroke-width="2"/>
<path d="M233.55 69.0681C238.138 72.6367 246.58 84.0561 243.644 101.185" stroke="black" stroke-width="2"/>
<path d="M234.773 68.4563C241.095 74.3699 252.331 90.0513 246.703 105.468" stroke="black"/>
<path d="M94.0691 254.124C92.3358 256.163 89.9092 263.484 94.0691 276.453C98.2291 289.423 100.697 297.763 101.41 300.312" stroke="#4D413F" stroke-width="4"/>
<mask id="path-246-inside-2_38_635" fill="white">
<ellipse cx="188.891" cy="4.83371" rx="6.11756" ry="2.7529"/>
</mask>
<ellipse cx="188.891" cy="4.83371" rx="6.11756" ry="2.7529" fill="#692020"/>
<path d="M192.009 4.83371C192.009 4.25047 192.284 3.91258 192.342 3.85063C192.385 3.80486 192.308 3.8996 191.986 4.04455C191.348 4.3315 190.257 4.58662 188.891 4.58662V10.5866C190.905 10.5866 192.872 10.2255 194.448 9.51607C195.743 8.93339 198.009 7.50976 198.009 4.83371H192.009ZM188.891 4.58662C187.526 4.58662 186.434 4.3315 185.797 4.04455C185.475 3.8996 185.398 3.80486 185.441 3.85063C185.499 3.91258 185.774 4.25047 185.774 4.83371H179.774C179.774 7.50976 182.04 8.93339 183.335 9.51607C184.911 10.2255 186.878 10.5866 188.891 10.5866V4.58662ZM185.774 4.83371C185.774 5.41695 185.499 5.75485 185.441 5.8168C185.398 5.86257 185.475 5.76783 185.797 5.62288C186.434 5.33593 187.526 5.08081 188.891 5.08081V-0.919189C186.878 -0.919189 184.911 -0.558053 183.335 0.151353C182.04 0.734037 179.774 2.15766 179.774 4.83371H185.774ZM188.891 5.08081C190.257 5.08081 191.348 5.33593 191.986 5.62288C192.308 5.76783 192.385 5.86257 192.342 5.8168C192.284 5.75485 192.009 5.41695 192.009 4.83371H198.009C198.009 2.15766 195.743 0.734037 194.448 0.151353C192.872 -0.558053 190.905 -0.919189 188.891 -0.919189V5.08081Z" fill="black" mask="url(#path-246-inside-2_38_635)"/>
<path d="M151.574 274.924C113.698 287.62 105.138 357.295 105.592 390.546C99.0522 379.059 100.596 325.304 102.185 299.862C107.749 293.816 125.415 280.365 151.574 274.924Z" fill="black" stroke="black"/>
<path d="M26.5193 621.412L35.8075 582.637L7.19983 640.143L75.6328 629.394L101.41 607.628L26.5193 621.412Z" fill="black" stroke="black"/>
<path d="M181.886 100.313C181.886 109.708 173.629 117.516 163.198 117.516C152.767 117.516 144.51 109.708 144.51 100.313C144.51 90.9172 152.767 83.1091 163.198 83.1091C173.629 83.1091 181.886 90.9172 181.886 100.313Z" fill="white" stroke="black" stroke-width="3"/>
<path d="M236.944 96.0753C236.944 105.158 228.961 112.712 218.868 112.712C208.774 112.712 200.791 105.158 200.791 96.0753C200.791 86.9928 208.774 79.4385 218.868 79.4385C228.961 79.4385 236.944 86.9928 236.944 96.0753Z" fill="white" stroke="black" stroke-width="3"/>
<path opacity="0.3" d="M379.454 377.087C378.719 372.438 373.642 368.217 371.195 366.688H379.454C379.759 372.091 380.188 381.737 379.454 377.087Z" fill="black"/>
<path d="M240.891 152.879C248.232 149.208 249.761 144.314 251.291 140.032L246.397 134.22C245.479 136.769 243.093 144.069 240.891 152.879Z" fill="black" stroke="black"/>
<path d="M143.598 143.396C142.295 146.741 142.31 154.604 152.798 159.302C148.934 152.255 145.055 145.762 143.598 143.396Z" fill="black" stroke="black"/>
</mask>
<g mask="url(#mask0_38_635)">
<rect x="-43.7736" y="-20.8059" width="479.582" height="689.724" fill="black"/>
</g>
</g>
<defs>
<linearGradient id="paint0_linear_38_635" x1="197.256" y1="158.445" x2="196.288" y2="152.503" gradientUnits="userSpaceOnUse">
<stop/>
<stop offset="1" stop-opacity="0"/>
<stop offset="1" stop-opacity="0.45"/>
</linearGradient>
<linearGradient id="paint1_linear_38_635" x1="197.256" y1="160.525" x2="196.288" y2="154.583" gradientUnits="userSpaceOnUse">
<stop/>
<stop offset="1" stop-opacity="0"/>
<stop offset="1" stop-opacity="0.45"/>
</linearGradient>
</defs>
</svg>
